<svg width="24" height="24" viewBox="0 0 24 24" fill="none" xmlns="http://www.w3.org/2000/svg">
<path d="M1.17209 23.9999C0.940287 24 0.713675 23.9312 0.520921 23.8025C0.328167 23.6737 0.177931 23.4907 0.0892164 23.2765C0.000501992 23.0624 -0.0227054 22.8267 0.0225297 22.5994C0.0677649 22.372 0.17941 22.1632 0.343344 21.9993L21.9996 0.343035C22.2194 0.123237 22.5175 -0.000244141 22.8283 -0.000244141C23.1392 -0.000244141 23.4373 0.123237 23.6571 0.343035C23.8769 0.562834 24.0004 0.860944 24.0004 1.17179C24.0004 1.48263 23.8769 1.78074 23.6571 2.00054L2.00084 23.6568C1.89211 23.7657 1.76292 23.8521 1.6207 23.911C1.47848 23.9699 1.32602 24.0001 1.17209 23.9999Z" fill="white"/>
<path d="M22.8283 23.9999C22.6743 24.0001 22.5219 23.9699 22.3797 23.911C22.2374 23.8521 22.1083 23.7657 21.9995 23.6568L0.34328 2.00054C0.123481 1.78074 0 1.48263 0 1.17179C0 0.860944 0.123481 0.562834 0.34328 0.343035C0.563078 0.123237 0.861188 -0.000244141 1.17203 -0.000244141C1.48287 -0.000244141 1.78098 0.123237 2.00078 0.343035L23.657 21.9993C23.821 22.1632 23.9326 22.372 23.9778 22.5994C24.0231 22.8267 23.9999 23.0624 23.9112 23.2765C23.8224 23.4907 23.6722 23.6737 23.4795 23.8025C23.2867 23.9312 23.0601 24 22.8283 23.9999Z" fill="white"/>
</svg>
