<svg width="15" height="17" viewBox="0 0 15 17" fill="none" xmlns="http://www.w3.org/2000/svg">
<path d="M0.330896 11.1561H5.61297C5.71516 11.1565 5.80877 11.099 5.85452 11.0076C6.06738 10.5813 6.66599 9.38467 6.66599 9.38467C6.70836 9.30081 6.7042 9.20095 6.65493 9.12091C6.60569 9.04088 6.51842 8.99216 6.42444 8.99219H1.14234C1.0399 8.99225 0.946293 9.05013 0.900515 9.14178L0.089076 10.7647C0.0471896 10.8486 0.0516632 10.9481 0.100934 11.0278C0.150174 11.1075 0.237165 11.1561 0.330896 11.1561Z" fill="#1B344F"/>
<path d="M1.3496 16.5655H7.02983V9.86719L6.26463 11.3992C6.17317 11.5824 5.98552 11.6978 5.78071 11.6967H1.0791V16.295C1.0791 16.4444 1.2002 16.5655 1.3496 16.5655Z" fill="#1B344F"/>
<path d="M13.521 16.295V11.6967H8.81943C8.61426 11.6976 8.42649 11.5815 8.33551 11.3976L7.57031 9.86719V16.5655H13.2505C13.3999 16.5655 13.521 16.4444 13.521 16.295Z" fill="#1B344F"/>
<path d="M13.4567 8.99219H8.17464C8.08093 8.99225 7.99391 9.04078 7.94467 9.12051C7.89543 9.20024 7.89093 9.29976 7.93282 9.3836L8.74429 11.0065C8.79006 11.0982 8.88367 11.1561 8.98611 11.1561H14.2682C14.3619 11.1561 14.4489 11.1075 14.4981 11.0278C14.5474 10.9481 14.5519 10.8486 14.51 10.7647L13.6985 9.14178C13.6527 9.05013 13.5591 8.99225 13.4567 8.99219Z" fill="#1B344F"/>
<path d="M5.11443 7.05176C5.07548 7.23288 5.144 7.42029 5.29055 7.5336C5.43711 7.64691 5.63572 7.66603 5.80119 7.58275L7.08113 6.88272C7.21721 6.8078 7.38218 6.8078 7.51823 6.88272L8.79817 7.58219C8.96366 7.66548 9.16225 7.64636 9.3088 7.53305C9.45536 7.41973 9.52387 7.23233 9.48493 7.05121L9.24394 5.59058C9.21633 5.42781 9.26799 5.26165 9.38296 5.14319L10.3989 4.11343C10.5309 3.98045 10.5791 3.78563 10.5244 3.60641C10.4697 3.42719 10.3209 3.29255 10.1371 3.256L8.7208 3.04179C8.56404 3.01669 8.43002 2.9153 8.36322 2.77129L7.72459 1.42507C7.65017 1.25691 7.48357 1.14844 7.29966 1.14844C7.11575 1.14844 6.94916 1.25688 6.87473 1.42507L6.23611 2.77129C6.16931 2.9153 6.03529 3.01666 5.87853 3.04179L4.46226 3.25575C4.27847 3.29231 4.12965 3.42695 4.07493 3.60617C4.0202 3.78539 4.06843 3.9802 4.20043 4.11318L5.21692 5.14319C5.33192 5.26165 5.38355 5.42781 5.35594 5.59058L5.11443 7.05176Z" fill="#1B344F"/>
<path d="M1.11904 6.38748C1.17652 6.44662 1.20232 6.52959 1.18857 6.61091L1.06793 7.34122C1.0486 7.43176 1.08292 7.52537 1.15621 7.58196C1.22947 7.63856 1.32872 7.64812 1.41145 7.60657L2.05249 7.25711C2.12055 7.21975 2.20297 7.21975 2.27106 7.25711L2.91103 7.60684C2.99376 7.64842 3.09301 7.63886 3.16627 7.58227C3.23953 7.52568 3.27385 7.43207 3.25455 7.34152L3.13391 6.61122C3.12012 6.52993 3.14595 6.44692 3.20344 6.38779L3.71141 5.87387C3.7775 5.80741 3.80168 5.70997 3.77431 5.62032C3.74695 5.53066 3.67246 5.46334 3.58051 5.44514L2.87236 5.33695C2.79398 5.32441 2.72697 5.27373 2.69357 5.2017L2.37438 4.52925C2.33724 4.44498 2.25384 4.39062 2.16179 4.39062C2.06971 4.39062 1.98634 4.44498 1.9492 4.52925L1.62894 5.20142C1.59554 5.27343 1.52853 5.32414 1.45015 5.33667L0.742002 5.44486C0.650048 5.46307 0.575559 5.53038 0.548197 5.62004C0.520834 5.7097 0.544979 5.80714 0.611103 5.8736L1.11904 6.38748Z" fill="#1B344F"/>
<path d="M12.2265 4.5222L11.9073 5.19517C11.8739 5.26718 11.8069 5.31789 11.7285 5.33042L11.0203 5.43862C10.9284 5.45682 10.8539 5.52414 10.8265 5.61379C10.7992 5.70345 10.8233 5.80089 10.8894 5.86735L11.3974 6.38126C11.4549 6.4404 11.4807 6.52337 11.4669 6.6047L11.3463 7.335C11.3269 7.42554 11.3613 7.51915 11.4346 7.57575C11.5078 7.63234 11.6071 7.6419 11.6898 7.60035L12.3308 7.25089C12.3989 7.21354 12.4813 7.21354 12.5494 7.25089L13.1894 7.60063C13.2721 7.64221 13.3714 7.63265 13.4446 7.57605C13.5179 7.51946 13.5522 7.42585 13.5329 7.3353L13.4123 6.605C13.3985 6.52371 13.4243 6.4407 13.4818 6.38157L13.9898 5.86765C14.0559 5.80119 14.08 5.70375 14.0527 5.6141C14.0253 5.52444 13.9508 5.45712 13.8589 5.43892L13.1507 5.33073C13.0723 5.3182 13.0053 5.26752 12.9719 5.19548L12.6527 4.52306C12.6161 4.43809 12.5324 4.38297 12.4399 4.38281C12.3473 4.3826 12.2635 4.43738 12.2265 4.5222Z" fill="#1B344F"/>
<path d="M5.40602 1.9571C5.50003 1.95762 5.58754 1.9093 5.63718 1.82948C5.68682 1.74966 5.69148 1.6498 5.64947 1.56572L5.37897 1.02475C5.3122 0.891064 5.14968 0.836799 5.01596 0.903566C4.88227 0.970333 4.82801 1.13285 4.89478 1.26657L5.16528 1.80754C5.2109 1.89882 5.30399 1.95664 5.40602 1.9571Z" fill="#1B344F"/>
<path d="M4.51602 2.41639C4.62161 2.31077 4.62161 2.13955 4.51602 2.03393L4.24552 1.76343C4.13938 1.66093 3.97067 1.66237 3.86633 1.76674C3.762 1.87107 3.76053 2.03978 3.86303 2.14592L4.13353 2.41642C4.23918 2.52198 4.4104 2.52198 4.51602 2.41639Z" fill="#1B344F"/>
<path d="M9.19287 1.95834C9.29589 1.95889 9.39026 1.90092 9.43631 1.80875L9.70681 1.26778C9.77358 1.13333 9.71873 0.970227 9.58428 0.903429C9.44983 0.836662 9.28672 0.891509 9.21993 1.02596L8.94943 1.56693C8.90742 1.65101 8.91204 1.75087 8.96171 1.83069C9.01135 1.91054 9.09886 1.95886 9.19287 1.95834Z" fill="#1B344F"/>
<path d="M10.466 2.42307L10.7366 2.15257C10.8069 2.08467 10.8351 1.98408 10.8103 1.88952C10.7855 1.79496 10.7117 1.72108 10.6171 1.69633C10.5226 1.67157 10.422 1.69976 10.3541 1.77008L10.0836 2.04058C10.0132 2.10848 9.98504 2.20908 10.0098 2.30363C10.0346 2.39819 10.1084 2.47207 10.203 2.49683C10.2976 2.52158 10.3981 2.49339 10.466 2.42307Z" fill="#1B344F"/>
</svg>
