<svg width="36" height="36" viewBox="0 0 36 36" fill="none" xmlns="http://www.w3.org/2000/svg">
<path d="M34.25 28H30.5V24.25C30.5 23.9185 30.3683 23.6005 30.1339 23.3661C29.8995 23.1317 29.5815 23 29.25 23C28.9185 23 28.6005 23.1317 28.3661 23.3661C28.1317 23.6005 28 23.9185 28 24.25V28H24.25C23.9185 28 23.6005 28.1317 23.3661 28.3661C23.1317 28.6005 23 28.9185 23 29.25C23 29.5815 23.1317 29.8995 23.3661 30.1339C23.6005 30.3683 23.9185 30.5 24.25 30.5H28V34.25C28 34.5815 28.1317 34.8995 28.3661 35.1339C28.6005 35.3683 28.9185 35.5 29.25 35.5C29.5815 35.5 29.8995 35.3683 30.1339 35.1339C30.3683 34.8995 30.5 34.5815 30.5 34.25V30.5H34.25C34.5815 30.5 34.8995 30.3683 35.1339 30.1339C35.3683 29.8995 35.5 29.5815 35.5 29.25C35.5 28.9185 35.3683 28.6005 35.1339 28.3661C34.8995 28.1317 34.5815 28 34.25 28Z" fill="#1B344F"/>
<path d="M19.25 28H4.25C3.91848 28 3.60054 27.8683 3.36612 27.6339C3.1317 27.3995 3 27.0815 3 26.75V23.5125L8 18.5125L10.8625 21.3875C10.9787 21.5047 11.117 21.5977 11.2693 21.6611C11.4216 21.7246 11.585 21.7572 11.75 21.7572C11.915 21.7572 12.0784 21.7246 12.2307 21.6611C12.383 21.5977 12.5213 21.5047 12.6375 21.3875L19.25 14.7625L24.6125 20.1375C24.8479 20.3729 25.1671 20.5051 25.5 20.5051C25.8329 20.5051 26.1521 20.3729 26.3875 20.1375C26.6229 19.9021 26.7551 19.5829 26.7551 19.25C26.7551 18.9171 26.6229 18.5979 26.3875 18.3625L20.1375 12.1125C20.0213 11.9953 19.883 11.9023 19.7307 11.8389C19.5784 11.7754 19.415 11.7428 19.25 11.7428C19.085 11.7428 18.9216 11.7754 18.7693 11.8389C18.617 11.9023 18.4787 11.9953 18.3625 12.1125L11.75 18.7375L8.8875 15.8625C8.7713 15.7453 8.63305 15.6523 8.48072 15.5889C8.3284 15.5254 8.16501 15.4928 8 15.4928C7.83499 15.4928 7.6716 15.5254 7.51928 15.5889C7.36695 15.6523 7.2287 15.7453 7.1125 15.8625L3 19.9875V4.25C3 3.91848 3.1317 3.60054 3.36612 3.36612C3.60054 3.1317 3.91848 3 4.25 3H26.75C27.0815 3 27.3995 3.1317 27.6339 3.36612C27.8683 3.60054 28 3.91848 28 4.25V19.25C28 19.5815 28.1317 19.8995 28.3661 20.1339C28.6005 20.3683 28.9185 20.5 29.25 20.5C29.5815 20.5 29.8995 20.3683 30.1339 20.1339C30.3683 19.8995 30.5 19.5815 30.5 19.25V4.25C30.5 3.25544 30.1049 2.30161 29.4017 1.59835C28.6984 0.895088 27.7446 0.5 26.75 0.5H4.25C3.25544 0.5 2.30161 0.895088 1.59835 1.59835C0.895088 2.30161 0.5 3.25544 0.5 4.25V26.75C0.5 27.7446 0.895088 28.6984 1.59835 29.4017C2.30161 30.1049 3.25544 30.5 4.25 30.5H19.25C19.5815 30.5 19.8995 30.3683 20.1339 30.1339C20.3683 29.8995 20.5 29.5815 20.5 29.25C20.5 28.9185 20.3683 28.6005 20.1339 28.3661C19.8995 28.1317 19.5815 28 19.25 28Z" fill="#1B344F"/>
<path d="M8 9.25C8 9.99168 8.21993 10.7167 8.63199 11.3334C9.04404 11.9501 9.62971 12.4307 10.3149 12.7145C11.0002 12.9984 11.7542 13.0726 12.4816 12.9279C13.209 12.7833 13.8772 12.4261 14.4017 11.9017C14.9261 11.3772 15.2833 10.709 15.4279 9.98159C15.5726 9.25416 15.4984 8.50016 15.2145 7.81494C14.9307 7.12971 14.4501 6.54404 13.8334 6.13199C13.2167 5.71993 12.4917 5.5 11.75 5.5C10.7554 5.5 9.80161 5.89509 9.09835 6.59835C8.39509 7.30161 8 8.25544 8 9.25ZM13 9.25C13 9.49723 12.9267 9.7389 12.7893 9.94446C12.652 10.15 12.4568 10.3102 12.2284 10.4048C11.9999 10.4995 11.7486 10.5242 11.5061 10.476C11.2637 10.4278 11.0409 10.3087 10.8661 10.1339C10.6913 9.95907 10.5722 9.73634 10.524 9.49386C10.4758 9.25139 10.5005 9.00005 10.5952 8.77165C10.6898 8.54324 10.85 8.34801 11.0555 8.21066C11.2611 8.07331 11.5028 8 11.75 8C12.0815 8 12.3995 8.1317 12.6339 8.36612C12.8683 8.60054 13 8.91848 13 9.25Z" fill="#1B344F"/>
</svg>
