<svg width="16" height="16" viewBox="0 0 16 16" fill="none" xmlns="http://www.w3.org/2000/svg">
<path d="M2.59707 14.5961C2.07589 14.5961 1.65332 14.174 1.65332 13.6524V7.98989C1.65332 7.46825 2.07589 7.04614 2.59707 7.04614C3.11825 7.04614 3.54082 7.46825 3.54082 7.98989V13.6524C3.54082 14.174 3.11825 14.5961 2.59707 14.5961Z" fill="#87888D"/>
<path d="M6.37246 14.5963C5.85128 14.5963 5.42871 14.1742 5.42871 13.6525V2.32754C5.42871 1.8059 5.85128 1.38379 6.37246 1.38379C6.89364 1.38379 7.31621 1.8059 7.31621 2.32754V13.6525C7.31621 14.1742 6.89364 14.5963 6.37246 14.5963Z" fill="#87888D"/>
<path d="M10.1469 14.5963C9.62523 14.5963 9.20312 14.1742 9.20312 13.6526V9.87759C9.20312 9.35594 9.62523 8.93384 10.1469 8.93384C10.6685 8.93384 11.0906 9.35594 11.0906 9.87759V13.6526C11.0906 14.1742 10.6685 14.5963 10.1469 14.5963Z" fill="#87888D"/>
<path d="M13.9223 14.5962C13.4006 14.5962 12.9785 14.1741 12.9785 13.6524V6.10244C12.9785 5.5808 13.4006 5.15869 13.9223 5.15869C14.4439 5.15869 14.866 5.5808 14.866 6.10244V13.6524C14.866 14.1741 14.4439 14.5962 13.9223 14.5962Z" fill="#87888D"/>
</svg>
