<svg width="12" height="8" viewBox="0 0 12 8" fill="none" xmlns="http://www.w3.org/2000/svg">
<path d="M5.96364 1.00002L5.9644 1.00001C6.05975 0.999479 6.15391 1.01716 6.24132 1.05166C6.32841 1.08602 6.40656 1.13619 6.47174 1.19848C6.47196 1.19869 6.47218 1.1989 6.47241 1.19912L11.2977 5.86118C11.4294 5.98838 11.5 6.15716 11.5 6.32936C11.5 6.50157 11.4294 6.67034 11.2977 6.79754C11.1655 6.92531 10.9826 7 10.7884 7C10.5943 7 10.4115 6.92539 10.2793 6.79776C10.2792 6.79769 10.2791 6.79762 10.279 6.79754L6.30957 2.95071L5.96213 2.614L5.61419 2.95018L1.65988 6.77071C1.52688 6.87551 1.35589 6.9319 1.17876 6.92529C0.995862 6.91846 0.825514 6.8452 0.70085 6.72475C0.576668 6.60477 0.506992 6.44732 0.500503 6.28497C0.494226 6.12798 0.547217 5.9718 0.653405 5.84589L5.46287 1.19912C5.46309 1.19891 5.46331 1.1987 5.46353 1.19849C5.59393 1.07386 5.7732 1.00079 5.96364 1.00002Z" fill="#1642C5" stroke="#1642C5"/>
</svg>
