<svg width="20" height="12" viewBox="0 0 20 12" fill="none" xmlns="http://www.w3.org/2000/svg">
<path d="M0.132183 6.32111L4.67753 10.8665C4.84081 11.0572 5.12776 11.0794 5.31842 10.9161C5.50908 10.7528 5.53131 10.4658 5.36799 10.2752C5.35276 10.2574 5.33619 10.2408 5.31842 10.2256L1.55032 6.45295L19.5455 6.45295C19.7965 6.45295 20 6.24943 20 5.99838C20 5.74733 19.7965 5.54386 19.5455 5.54386L1.55032 5.54386L5.31842 1.77576C5.50908 1.61248 5.53131 1.32553 5.36799 1.13487C5.20467 0.944214 4.91776 0.921988 4.7271 1.08531C4.70933 1.10054 4.69273 1.1171 4.67753 1.13487L0.132143 5.68026C-0.0440655 5.85749 -0.0440636 6.14381 0.132183 6.32111Z" fill="black"/>
</svg>
