<svg width="14" height="10" viewBox="0 0 14 10" fill="none" xmlns="http://www.w3.org/2000/svg">
<path d="M13.3461 2.00337L6.04747 9.30196C5.81861 9.52896 5.50971 9.65693 5.18737 9.65828C5.02567 9.65922 4.86536 9.62822 4.71566 9.56708C4.56595 9.50593 4.42979 9.41584 4.31498 9.30196L0.628828 5.6158C0.427532 5.38075 0.322346 5.07839 0.33429 4.76915C0.346235 4.45991 0.47443 4.16657 0.693258 3.94774C0.912086 3.72891 1.20543 3.60072 1.51467 3.58877C1.82391 3.57683 2.12627 3.68201 2.36132 3.88331L5.18737 6.72165L11.6136 0.295454C11.8486 0.0941581 12.151 -0.0110282 12.4602 0.000916351C12.7695 0.0128609 13.0628 0.141055 13.2816 0.359883C13.5005 0.578711 13.6287 0.872055 13.6406 1.18129C13.6525 1.49053 13.5474 1.79289 13.3461 2.02795V2.00337Z" fill="#1642C5"/>
</svg>
