<svg width="20" height="20" viewBox="0 0 20 20" fill="none" xmlns="http://www.w3.org/2000/svg">
<g clip-path="url(#clip0_2926_49874)">
<path d="M19.3977 2.71777H15.4745V3.51154C15.4745 3.84433 15.2052 4.1138 14.8723 4.1138C14.5398 4.1138 14.27 3.84433 14.27 3.51154V2.71777H5.72998V3.51154C5.72998 3.84433 5.46021 4.1138 5.12772 4.1138C4.79477 4.1138 4.52545 3.84433 4.52545 3.51154V2.71777H0.602264C0.26947 2.71777 0 2.98755 0 3.32004V5.83591H20V3.32004C20 2.98755 19.7305 2.71777 19.3977 2.71777Z" fill="#F24F7D"/>
<path d="M0 19.2692C0 19.6015 0.26947 19.8714 0.602264 19.8714H19.3977C19.7305 19.8714 20 19.6015 20 19.2692V7.04077H0V19.2692ZM6.3591 10.3861C6.12381 10.1513 6.12381 9.76981 6.3591 9.53452C6.59439 9.29922 6.97586 9.29922 7.21069 9.53452L10 12.3238L12.7893 9.53452C13.0241 9.29922 13.4056 9.29922 13.6409 9.53452C13.8762 9.76981 13.8762 10.1513 13.6409 10.3861L10.8516 13.1754L13.6409 15.9647C13.8762 16.1996 13.8762 16.581 13.6409 16.8163C13.4061 17.051 13.0246 17.0516 12.7893 16.8163L10 14.027L7.21069 16.8163C6.97601 17.051 6.59439 17.0516 6.3591 16.8163C6.12381 16.581 6.12381 16.1996 6.3591 15.9647L9.14841 13.1754L6.3591 10.3861Z" fill="#F24F7D"/>
<path d="M5.72992 0.719452C5.72992 0.386963 5.46014 0.117188 5.12766 0.117188C4.79471 0.117188 4.52539 0.386963 4.52539 0.719452V1.51367H5.72992V0.719452Z" fill="#F24F7D"/>
<path d="M15.4741 0.719452C15.4741 0.386963 15.2047 0.117188 14.8718 0.117188C14.5393 0.117188 14.2695 0.386963 14.2695 0.719452V1.51367H15.4741V0.719452Z" fill="#F24F7D"/>
</g>
<defs>
<clipPath id="clip0_2926_49874">
<rect width="20" height="20" fill="white"/>
</clipPath>
</defs>
</svg>
