<svg width="16" height="14" viewBox="0 0 16 14" fill="none" xmlns="http://www.w3.org/2000/svg">
<path d="M1.15169 11.0782H12.7131C12.8168 11.0782 12.9171 11.0419 12.9965 10.9758C13.1076 10.8828 15.6407 8.70368 15.7952 3.99976H3.37839C3.22452 8.26965 0.891642 10.2766 0.867399 10.2967C0.725269 10.4167 0.672977 10.6129 0.736919 10.7875C0.800419 10.9616 0.965907 11.0782 1.15169 11.0782Z" fill="#1B344F"/>
<path d="M15.3669 1.34525H13.1549V0.902852C13.1549 0.655106 12.9603 0.460449 12.7125 0.460449C12.4648 0.460449 12.2701 0.655106 12.2701 0.902852V1.34525H10.0286V0.902852C10.0286 0.655106 9.83396 0.460449 9.58622 0.460449C9.33847 0.460449 9.14381 0.655106 9.14381 0.902852V1.34525H6.9318V0.902852C6.9318 0.655106 6.73714 0.460449 6.4894 0.460449C6.24165 0.460449 6.04699 0.655106 6.04699 0.902852V1.34525H3.83498C3.58724 1.34525 3.39258 1.53991 3.39258 1.78766V3.11487H15.8093V1.78766C15.8093 1.53991 15.6147 1.34525 15.3669 1.34525Z" fill="#1B344F"/>
<path d="M13.5641 11.6544C13.3238 11.8544 13.0223 11.9633 12.7125 11.9633H3.39258V13.2905C3.39258 13.535 3.59045 13.7329 3.83498 13.7329H15.3669C15.6115 13.7329 15.8093 13.535 15.8093 13.2905V8.3313C14.9564 10.4239 13.7662 11.4852 13.5641 11.6544Z" fill="#1B344F"/>
</svg>
