<svg width="20" height="20" viewBox="0 0 20 20" fill="none" xmlns="http://www.w3.org/2000/svg">
<path d="M4.88691 4.75658H5.17304C5.60789 4.75658 5.96037 4.40397 5.96037 3.96924V1.79653V0.983829C5.96037 0.549105 5.60789 0.196533 5.17304 0.196533H4.88691C4.4521 0.196533 4.09961 0.549105 4.09961 0.983829V1.79657V3.96924C4.09961 4.40397 4.4521 4.75658 4.88691 4.75658Z" fill="#87888D"/>
<path d="M14.9856 4.73705H15.2718C15.7066 4.73705 16.059 4.38448 16.059 3.94971V1.5903V0.964257C16.059 0.529574 15.7066 0.177002 15.2718 0.177002H14.9856C14.5507 0.177002 14.1982 0.529574 14.1982 0.964257V1.5903V3.94967C14.1983 4.38448 14.5508 4.73705 14.9856 4.73705Z" fill="#87888D"/>
<path d="M18.7201 1.79639H16.6994V4.15576C16.6994 4.94281 16.0591 5.37691 15.2722 5.37691H14.9861C14.199 5.37691 13.5587 4.7366 13.5587 3.94955V1.79639H6.60079V3.96906C6.60079 4.75611 5.96052 5.39642 5.17347 5.39642H4.88734C4.10033 5.39642 3.46006 4.75611 3.46006 3.96906V1.79639H1.27996C0.574202 1.79639 0 2.37059 0 3.07639V18.5431C0 19.2489 0.574202 19.8231 1.27996 19.8231H18.7201C19.4258 19.8231 20 19.2489 20 18.5431V3.07639C20.0001 2.37063 19.4258 1.79639 18.7201 1.79639ZM18.7201 18.5431H1.28001L1.27996 6.86304H18.7203L18.721 18.5431C18.7209 18.5431 18.7207 18.5431 18.7201 18.5431Z" fill="#87888D"/>
<path d="M10.6611 10.781H12.9593C13.0504 10.781 13.1243 10.7071 13.1243 10.616V8.6259C13.1243 8.5348 13.0504 8.46094 12.9593 8.46094H10.6611C10.57 8.46094 10.4961 8.5348 10.4961 8.6259V10.616C10.4961 10.7071 10.57 10.781 10.6611 10.781Z" fill="#87888D"/>
<path d="M14.4111 10.781H16.7093C16.8004 10.781 16.8743 10.7071 16.8743 10.616V8.6259C16.8743 8.5348 16.8004 8.46094 16.7093 8.46094H14.4111C14.32 8.46094 14.2461 8.5348 14.2461 8.6259V10.616C14.2461 10.7071 14.32 10.781 14.4111 10.781Z" fill="#87888D"/>
<path d="M3.15911 14.0391H5.45732C5.54842 14.0391 5.62228 13.9652 5.62228 13.8741V11.884C5.62228 11.7929 5.54842 11.719 5.45732 11.719H3.15911C3.068 11.719 2.99414 11.7929 2.99414 11.884V13.8741C2.99414 13.9652 3.068 14.0391 3.15911 14.0391Z" fill="#87888D"/>
<path d="M6.91008 14.0391H9.20829C9.2994 14.0391 9.37326 13.9652 9.37326 13.8741V11.884C9.37326 11.7929 9.2994 11.719 9.20829 11.719H6.91008C6.81898 11.719 6.74512 11.7929 6.74512 11.884V13.8741C6.74512 13.9652 6.81898 14.0391 6.91008 14.0391Z" fill="#87888D"/>
<path d="M10.6611 14.0391H12.9593C13.0504 14.0391 13.1242 13.9652 13.1242 13.8741V11.884C13.1242 11.7929 13.0504 11.719 12.9593 11.719H10.6611C10.57 11.719 10.4961 11.7929 10.4961 11.884V13.8741C10.4961 13.9652 10.57 14.0391 10.6611 14.0391Z" fill="#87888D"/>
<path d="M14.4111 14.0391H16.7093C16.8004 14.0391 16.8743 13.9652 16.8743 13.8741V11.884C16.8743 11.7929 16.8004 11.719 16.7093 11.719H14.4111C14.32 11.719 14.2461 11.7929 14.2461 11.884V13.8741C14.2461 13.9652 14.32 14.0391 14.4111 14.0391Z" fill="#87888D"/>
<path d="M5.45728 14.9771H3.15911C3.068 14.9771 2.99414 15.0509 2.99414 15.142V17.1322C2.99414 17.2233 3.068 17.2971 3.15911 17.2971H5.45732C5.54842 17.2971 5.62228 17.2233 5.62228 17.1322V15.142C5.62224 15.0509 5.54838 14.9771 5.45728 14.9771Z" fill="#87888D"/>
<path d="M9.20829 14.9771H6.91008C6.81898 14.9771 6.74512 15.0509 6.74512 15.142V17.1322C6.74512 17.2233 6.81898 17.2971 6.91008 17.2971H9.20829C9.2994 17.2971 9.37326 17.2233 9.37326 17.1322V15.142C9.37326 15.0509 9.2994 14.9771 9.20829 14.9771Z" fill="#87888D"/>
<path d="M12.9593 14.9771H10.6611C10.57 14.9771 10.4961 15.0509 10.4961 15.142V17.1322C10.4961 17.2233 10.57 17.2971 10.6611 17.2971H12.9593C13.0504 17.2971 13.1243 17.2233 13.1243 17.1322V15.142C13.1243 15.0509 13.0504 14.9771 12.9593 14.9771Z" fill="#87888D"/>
<path d="M16.7093 14.9771H14.4111C14.32 14.9771 14.2461 15.0509 14.2461 15.142V17.1322C14.2461 17.2233 14.32 17.2971 14.4111 17.2971H16.7093C16.8004 17.2971 16.8743 17.2233 16.8743 17.1322V15.142C16.8743 15.0509 16.8004 14.9771 16.7093 14.9771Z" fill="#87888D"/>
</svg>
