<svg width="13" height="9" viewBox="0 0 13 9" fill="none" xmlns="http://www.w3.org/2000/svg">
<path fill-rule="evenodd" clip-rule="evenodd" d="M9.70673 0.900391H9.14638C8.83691 0.900391 8.58604 1.15127 8.58604 1.46074V6.31706C8.58604 6.62653 8.83691 6.8774 9.14638 6.8774H9.70673C10.0162 6.8774 10.2671 6.62653 10.2671 6.31706V1.46074C10.2671 1.15127 10.0162 0.900391 9.70673 0.900391ZM6.53126 2.20823H7.0916C7.40107 2.20823 7.65195 2.4591 7.65195 2.76857V6.31742C7.65195 6.62689 7.40107 6.87777 7.0916 6.87777H6.53126C6.22179 6.87777 5.97091 6.62689 5.97091 6.31742V2.76857C5.97091 2.4591 6.22179 2.20823 6.53126 2.20823ZM4.47703 3.51497H3.91668C3.60721 3.51497 3.35634 3.76584 3.35634 4.07531V6.31669C3.35634 6.62616 3.60721 6.87704 3.91668 6.87704H4.47703C4.7865 6.87704 5.03737 6.62616 5.03737 6.31669V4.07531C5.03737 3.76584 4.7865 3.51497 4.47703 3.51497ZM1.8619 4.63566H1.30156C0.992086 4.63566 0.741211 4.88653 0.741211 5.196V6.31669C0.741211 6.62616 0.992086 6.87704 1.30156 6.87704H1.8619C2.17137 6.87704 2.42225 6.62616 2.42225 6.31669V5.196C2.42225 4.88653 2.17137 4.63566 1.8619 4.63566Z" fill="#1A1D25"/>
</svg>
