<svg width="20" height="20" viewBox="0 0 20 20" fill="none" xmlns="http://www.w3.org/2000/svg">
<g clip-path="url(#clip0_2926_49862)">
<path d="M10 0C4.48578 0 0 4.48578 0 10C0 15.5142 4.48578 20 10 20C15.5142 20 20 15.5142 20 10C20 4.48578 15.5142 0 10 0Z" fill="#1B344F"/>
<path d="M15.0692 7.88074L9.6525 13.2973C9.48999 13.4598 9.27667 13.5416 9.06335 13.5416C8.85004 13.5416 8.63672 13.4598 8.47421 13.2973L5.76593 10.589C5.44 10.2632 5.44 9.73651 5.76593 9.41074C6.09171 9.08481 6.61829 9.08481 6.94421 9.41074L9.06335 11.5299L13.8909 6.70245C14.2167 6.37653 14.7433 6.37653 15.0692 6.70245C15.395 7.02823 15.395 7.55481 15.0692 7.88074Z" fill="#FAFAFA"/>
</g>
<defs>
<clipPath id="clip0_2926_49862">
<rect width="20" height="20" fill="white"/>
</clipPath>
</defs>
</svg>
