<svg width="8" height="6" viewBox="0 0 8 6" fill="none" xmlns="http://www.w3.org/2000/svg">
<path fill-rule="evenodd" clip-rule="evenodd" d="M7.26263 1.61716C7.53413 1.34566 7.53413 0.905469 7.26263 0.63397C6.99113 0.362471 6.55095 0.362471 6.27945 0.63397L2.83834 4.07508L1.36358 2.60032C1.09208 2.32882 0.651891 2.32882 0.380393 2.60032C0.108893 2.87182 0.108894 3.31201 0.380393 3.58351L2.34056 5.54367C2.34259 5.54576 2.34464 5.54783 2.34671 5.5499C2.54345 5.74663 2.82876 5.80081 3.07428 5.71242C3.1676 5.67883 3.25517 5.62465 3.32995 5.54988C3.33136 5.54846 3.33277 5.54704 3.33417 5.54562L7.26263 1.61716Z" fill="white"/>
</svg>
