<svg width="18" height="16" viewBox="0 0 18 16" fill="none" xmlns="http://www.w3.org/2000/svg">
<path d="M14.2212 4.33095C14.043 3.27194 13.5187 2.30545 12.7167 1.57202C11.8256 0.756342 10.6672 0.307373 9.4608 0.307373C8.52859 0.307373 7.62037 0.574698 6.84239 1.0785C6.19464 1.49663 5.65656 2.06212 5.27614 2.727C5.11163 2.69616 4.94027 2.67902 4.76891 2.67902C3.31233 2.67902 2.12651 3.86485 2.12651 5.32142C2.12651 5.50992 2.14707 5.69157 2.18134 5.86978C1.23885 6.55523 0.666504 7.6588 0.666504 8.83435C0.666504 9.78369 1.01951 10.7056 1.66383 11.4356C2.32529 12.1828 3.19923 12.6249 4.13144 12.6763C4.14172 12.6763 4.14858 12.6763 4.15886 12.6763H7.10629C7.36333 12.6763 7.56896 12.4706 7.56896 12.2136C7.56896 11.9566 7.36333 11.7509 7.10629 11.7509H4.17257C2.77083 11.6652 1.59186 10.3321 1.59186 8.83092C1.59186 7.86101 2.1128 6.95622 2.95247 6.46612C3.14783 6.35302 3.23008 6.11654 3.15468 5.90406C3.08613 5.71899 3.05186 5.52363 3.05186 5.31457C3.05186 4.36865 3.82299 3.59752 4.76891 3.59752C4.97112 3.59752 5.1699 3.6318 5.35497 3.70034C5.58117 3.78259 5.83135 3.67978 5.93417 3.46386C6.57506 2.10325 7.95967 1.22587 9.46423 1.22587C11.4863 1.22587 13.1554 2.74071 13.3473 4.74908C13.3679 4.95814 13.5255 5.12607 13.7311 5.16035C15.2563 5.42081 16.4078 6.82941 16.4078 8.43679C16.4078 10.1401 15.0678 11.6207 13.4158 11.7475H10.89C10.6329 11.7475 10.4273 11.9531 10.4273 12.2102C10.4273 12.4672 10.6329 12.6729 10.89 12.6729H13.433C13.4433 12.6729 13.4535 12.6729 13.4672 12.6729C14.5126 12.5975 15.4893 12.1176 16.2159 11.3157C16.939 10.5205 17.3332 9.49923 17.3332 8.43679C17.3297 6.5141 16.0171 4.80391 14.2212 4.33095Z" fill="white"/>
<path d="M11.7782 9.26829C11.9598 9.08665 11.9598 8.79533 11.7782 8.61369L9.32773 6.16321C9.24205 6.07753 9.12209 6.02612 9.00214 6.02612C8.88219 6.02612 8.76223 6.0741 8.67655 6.16321L6.22608 8.61369C6.04443 8.79533 6.04443 9.08665 6.22608 9.26829C6.31518 9.3574 6.43514 9.40538 6.55166 9.40538C6.66819 9.40538 6.78814 9.36083 6.87725 9.26829L8.53946 7.60608V15.2454C8.53946 15.5024 8.7451 15.7081 9.00214 15.7081C9.25918 15.7081 9.46482 15.5024 9.46482 15.2454V7.60608L11.127 9.26829C11.3052 9.44994 11.5966 9.44994 11.7782 9.26829Z" fill="white"/>
</svg>
