<svg width="244" height="183" viewBox="0 0 244 183" fill="none" xmlns="http://www.w3.org/2000/svg">
<circle opacity="0.2" cx="117.689" cy="108.5" r="68.5" fill="#5EAC20"/>
<circle opacity="0.4" cx="117.69" cy="108.501" r="50.122" fill="#5EAC20"/>
<path opacity="0.99" d="M111.803 121.039C111.41 121.039 111.02 120.96 110.657 120.806C110.294 120.652 109.964 120.426 109.687 120.142L101.268 111.527C100.712 110.951 100.402 110.174 100.404 109.365C100.407 108.556 100.722 107.781 101.281 107.209C101.84 106.637 102.597 106.315 103.388 106.312C104.178 106.31 104.938 106.627 105.5 107.196L111.803 113.645L128.208 96.858C128.771 96.2896 129.53 95.9721 130.321 95.9746C131.111 95.9772 131.869 96.2997 132.428 96.8717C132.987 97.4437 133.302 98.2188 133.304 99.0277C133.307 99.8366 132.996 100.614 132.441 101.189L113.919 120.142C113.642 120.427 113.312 120.652 112.949 120.806C112.585 120.96 112.196 121.039 111.803 121.039Z" fill="white"/>
<path d="M116.854 77.8711C110.934 77.8711 105.146 79.6675 100.223 83.0332C95.3009 86.3989 91.4642 91.1826 89.1985 96.7796C86.9329 102.376 86.3401 108.535 87.4951 114.477C88.6501 120.418 91.501 125.876 95.6874 130.16C99.8737 134.444 105.207 137.361 111.014 138.543C116.821 139.725 122.839 139.118 128.309 136.8C133.779 134.481 138.454 130.555 141.743 125.518C145.032 120.481 146.788 114.559 146.788 108.501C146.779 100.38 143.622 92.5949 138.01 86.8527C132.399 81.1105 124.79 77.8804 116.854 77.8711V77.8711ZM132.44 101.191L113.919 120.143C113.641 120.427 113.311 120.653 112.948 120.807C112.585 120.961 112.196 121.04 111.802 121.04C111.409 121.04 111.02 120.961 110.657 120.807C110.294 120.653 109.964 120.427 109.686 120.143L101.267 111.528C100.712 110.953 100.401 110.176 100.404 109.367C100.406 108.558 100.721 107.783 101.28 107.211C101.839 106.639 102.597 106.316 103.387 106.314C104.178 106.311 104.937 106.629 105.5 107.197L111.802 113.646L128.208 96.8594C128.77 96.291 129.53 95.9734 130.32 95.976C131.111 95.9785 131.868 96.301 132.427 96.873C132.986 97.445 133.301 98.2201 133.304 99.0291C133.306 99.838 132.996 100.615 132.44 101.191Z" fill="#5EAC20"/>
<path d="M53.787 13.6466L59.998 7.43555" stroke="#B5B5B5" stroke-width="1.5" stroke-linecap="round"/>
<path d="M53.787 7.43541L59.998 13.6465" stroke="#B5B5B5" stroke-width="1.5" stroke-linecap="round"/>
<path d="M194.625 174.647L200.836 168.436" stroke="#B5B5B5" stroke-width="1.5" stroke-linecap="round"/>
<path d="M194.625 168.435L200.836 174.646" stroke="#B5B5B5" stroke-width="1.5" stroke-linecap="round"/>
<path d="M7.02773 162.117C5.86956 162.117 4.73739 162.461 3.77439 163.104C2.8114 163.748 2.06084 164.662 1.61763 165.732C1.17441 166.802 1.05845 167.98 1.2844 169.115C1.51035 170.251 2.06806 171.295 2.88702 172.114C3.70597 172.933 4.74939 173.49 5.88531 173.716C7.02124 173.942 8.19866 173.826 9.26867 173.383C10.3387 172.94 11.2533 172.189 11.8967 171.226C12.5401 170.263 12.8836 169.131 12.8836 167.973C12.8836 167.204 12.7321 166.443 12.4378 165.732C12.1436 165.022 11.7122 164.376 11.1684 163.832C10.6247 163.289 9.97914 162.857 9.26867 162.563C8.55821 162.269 7.79674 162.117 7.02773 162.117V162.117ZM7.02773 172.658C6.10119 172.658 5.19545 172.383 4.42506 171.868C3.65467 171.353 3.05422 170.622 2.69965 169.766C2.34508 168.91 2.2523 167.968 2.43306 167.059C2.61382 166.15 3.06 165.316 3.71516 164.66C4.37033 164.005 5.20506 163.559 6.1138 163.378C7.02254 163.198 7.96447 163.29 8.82049 163.645C9.6765 164 10.4081 164.6 10.9229 165.37C11.4377 166.141 11.7124 167.047 11.7124 167.973C11.7124 169.215 11.2189 170.407 10.3403 171.286C9.46176 172.164 8.27019 172.658 7.02773 172.658V172.658Z" fill="#B5B5B5"/>
<path d="M236.082 97.793C234.924 97.793 233.792 98.1364 232.829 98.7799C231.866 99.4233 231.116 100.338 230.672 101.408C230.229 102.478 230.113 103.655 230.339 104.791C230.565 105.927 231.123 106.971 231.942 107.79C232.761 108.608 233.804 109.166 234.94 109.392C236.076 109.618 237.253 109.502 238.323 109.059C239.393 108.616 240.308 107.865 240.951 106.902C241.595 105.939 241.938 104.807 241.938 103.649C241.938 102.88 241.787 102.118 241.493 101.408C241.198 100.697 240.767 100.052 240.223 99.5081C239.679 98.9643 239.034 98.533 238.323 98.2387C237.613 97.9444 236.851 97.793 236.082 97.793V97.793ZM236.082 108.334C235.156 108.334 234.25 108.059 233.48 107.544C232.709 107.029 232.109 106.298 231.754 105.442C231.4 104.586 231.307 103.644 231.488 102.735C231.669 101.826 232.115 100.991 232.77 100.336C233.425 99.6811 234.26 99.2349 235.168 99.0542C236.077 98.8734 237.019 98.9662 237.875 99.3207C238.731 99.6753 239.463 100.276 239.978 101.046C240.492 101.817 240.767 102.722 240.767 103.649C240.767 104.891 240.274 106.083 239.395 106.961C238.516 107.84 237.325 108.334 236.082 108.334V108.334Z" fill="#B5B5B5"/>
<circle cx="8.58134" cy="85.2024" r="4.39189" fill="#5EAC20"/>
<circle cx="234.798" cy="28.9856" r="4.39189" fill="#5EAC20"/>
</svg>
