<svg width="14" height="14" viewBox="0 0 14 14" fill="none" xmlns="http://www.w3.org/2000/svg">
<path fill-rule="evenodd" clip-rule="evenodd" d="M13.3915 4.35024V4.35302C13.7394 5.19079 13.9163 6.08104 13.9163 6.99992C13.9163 10.8357 10.7939 13.9581 6.95817 13.9581C3.12245 13.9581 0 10.8357 0 6.99992C0 3.16418 3.12245 0.041748 6.95817 0.041748C7.68298 0.041748 8.39914 0.154673 9.08098 0.375342C9.0838 0.375342 9.0838 0.378122 9.0838 0.378122H9.09251C9.10226 0.381451 9.11015 0.387388 9.11832 0.393497L9.12601 0.399159L9.1293 0.401441L9.13301 0.403809L9.135 0.404976L9.13905 0.407156C9.15374 0.415907 9.17124 0.418687 9.18558 0.430218C9.18558 0.430218 9.18558 0.431161 9.18613 0.431951C9.18648 0.432517 9.18716 0.432997 9.18833 0.432997C9.20398 0.448938 9.21524 0.464897 9.228 0.482965L9.23171 0.488268C9.23342 0.490515 9.23521 0.492643 9.23706 0.494737L9.24111 0.499232C9.24475 0.503231 9.24839 0.507229 9.25154 0.511673C9.25402 0.51507 9.25621 0.518743 9.25793 0.522861C9.2626 0.531011 9.26562 0.5399 9.26788 0.549183L9.26905 0.554365L9.27035 0.560697L9.27227 0.572159L9.27495 0.579486L9.27783 0.587054L9.27804 0.58762C9.28284 0.600146 9.28778 0.613102 9.28978 0.62743C9.28978 0.632166 9.28916 0.636987 9.28854 0.641981V0.64428C9.28778 0.650783 9.28696 0.657664 9.28696 0.665197C9.28696 0.691434 9.28422 0.714496 9.27824 0.74075V0.743529C9.27488 0.753293 9.26898 0.762182 9.26328 0.770624C9.25882 0.777316 9.25456 0.783717 9.25196 0.790048C9.24324 0.807551 9.23727 0.825036 9.22574 0.839347C8.85434 1.29184 8.65159 1.85724 8.65159 2.43695C8.65159 3.82539 9.78197 4.95621 11.1708 4.95621C11.8261 4.95621 12.4464 4.70412 12.9191 4.24607C12.923 4.24283 12.9269 4.24006 12.9308 4.23758C12.9365 4.23401 12.9421 4.231 12.9477 4.22802C12.9527 4.22541 12.9576 4.2228 12.9625 4.21983C12.98 4.2083 12.9915 4.19677 13.009 4.18802H13.0149C13.0352 4.17966 13.0587 4.17649 13.0818 4.17371C13.0961 4.17371 13.1108 4.16496 13.1251 4.16774C13.1426 4.16774 13.1569 4.17371 13.1744 4.17649C13.1947 4.17927 13.2149 4.18205 13.2324 4.18802C13.24 4.19168 13.2464 4.1967 13.2531 4.20219L13.2568 4.20525L13.2643 4.21108C13.2873 4.22261 13.3076 4.23414 13.3278 4.25165C13.3278 4.25331 13.3278 4.25398 13.3285 4.25426C13.3289 4.25443 13.3296 4.25443 13.3307 4.25443C13.3422 4.26874 13.3509 4.28622 13.3597 4.30373C13.3684 4.31804 13.3828 4.32679 13.3887 4.34427C13.3887 4.34602 13.3887 4.34681 13.3892 4.34764L13.39 4.34873L13.3915 4.35024ZM2.0294 7.86948C2.0294 8.51043 2.54871 9.02931 3.18923 9.02931C3.82975 9.02931 4.34906 8.51043 4.34906 7.86948C4.34906 7.22855 3.82975 6.70967 3.18923 6.70967C2.54829 6.70967 2.0294 7.22894 2.0294 7.86948ZM4.92836 2.94073C4.45003 2.94073 4.05879 3.33237 4.05879 3.81069C4.05879 4.28902 4.45044 4.68066 4.92836 4.68027C5.4071 4.68027 5.79834 4.28902 5.79834 3.81069C5.79834 3.33196 5.40669 2.94073 4.92836 2.94073ZM6.66831 10.7689C6.66831 11.2476 7.05955 11.6388 7.53788 11.6388C8.01621 11.6388 8.40786 11.2472 8.40786 10.7689C8.40786 10.2905 8.01621 9.89929 7.53788 9.89929C7.05955 9.89929 6.66831 10.2905 6.66831 10.7689ZM6.95817 6.85478C6.95817 7.49573 7.47748 8.01462 8.118 8.01462C8.75852 8.01462 9.27742 7.49573 9.27783 6.85478C9.27783 6.21385 8.75852 5.69497 8.118 5.69497C7.47707 5.69497 6.95817 6.21424 6.95817 6.85478Z" fill="#1B344F"/>
</svg>
