<svg width="16" height="24" viewBox="0 0 16 24" fill="none" xmlns="http://www.w3.org/2000/svg">
<path d="M15.0105 3.89863C15.1612 3.56964 15.2392 3.21204 15.2392 2.85019C15.2392 2.48835 15.1612 2.13075 15.0105 1.80176C14.4913 1.12374 13.8572 0.542015 13.1371 0.0830156C12.9319 -0.0143904 12.6964 -0.0265823 12.4823 0.0491055C12.2681 0.124793 12.0926 0.282203 11.9941 0.48692L8.12695 8.48768L10.4473 13.2916L15.0105 3.89863Z" fill="#1B344F"/>
<path d="M14.3152 17.7775C13.9849 17.063 13.4762 16.4457 12.8379 15.9851C12.1997 15.5245 11.4535 15.2361 10.6714 15.1478L3.79645 0.985318C3.69646 0.782118 3.52031 0.626601 3.30628 0.552576C3.09225 0.478552 2.85765 0.492003 2.65349 0.590006C2.65349 0.590006 1.07224 1.62985 0.780056 2.30875C0.629006 2.63612 0.550781 2.99236 0.550781 3.35289C0.550781 3.71342 0.629006 4.06966 0.780056 4.39703L7.00191 17.1587C6.63248 17.788 6.43771 18.5044 6.43771 19.2341C6.43771 19.9638 6.63248 20.6802 7.00191 21.3095C7.86128 23.2688 10.4394 24.747 12.6222 23.5954C13.6158 23.046 14.3515 22.1258 14.6688 21.0356C14.986 19.9455 14.8588 18.7741 14.3152 17.7775ZM10.68 21.5415C10.2853 21.5432 9.89903 21.4277 9.57003 21.2097C9.24103 20.9916 8.98415 20.6809 8.83193 20.3167C8.67971 19.9525 8.639 19.5514 8.71496 19.1641C8.79091 18.7768 8.98011 18.4207 9.2586 18.141C9.53708 17.8613 9.89232 17.6706 10.2793 17.593C10.6663 17.5153 11.0676 17.5543 11.4324 17.705C11.7972 17.8556 12.1091 18.1112 12.3286 18.4392C12.548 18.7673 12.6652 19.1531 12.6652 19.5478C12.6652 20.075 12.4563 20.5809 12.0843 20.9545C11.7122 21.3282 11.2073 21.5392 10.68 21.5415Z" fill="#1B344F"/>
<path d="M5.78957 20.8539C5.57648 21.0961 5.31081 21.2862 5.0129 21.4099C4.71499 21.5335 4.39275 21.5873 4.07083 21.5672C3.54206 21.5672 3.03494 21.3572 2.66104 20.9833C2.28714 20.6094 2.07709 20.1022 2.07709 19.5735C2.07709 19.0447 2.28714 18.5376 2.66104 18.1637C3.03494 17.7898 3.54206 17.5797 4.07083 17.5797C4.62156 17.5576 5.16077 17.7415 5.58332 18.0953C5.87551 18.3446 6.26223 16.8407 6.26223 16.8407L4.8013 13.8157L4.14817 15.1735C3.3672 15.2618 2.622 15.5492 1.98398 16.0081C1.34596 16.4671 0.836503 17.0822 0.504435 17.7946C-0.0261946 18.798 -0.14346 19.9691 0.177684 21.0577C0.498827 22.1464 1.23292 23.0664 2.22318 23.6211C2.94895 23.9549 3.75784 24.0646 4.54629 23.936C5.33474 23.8074 6.06687 23.4464 6.64895 22.8992C6.8552 22.7531 6.09895 20.5102 5.78957 20.8539Z" fill="#1B344F"/>
</svg>
