<svg width="12" height="12" viewBox="0 0 12 12" fill="none" xmlns="http://www.w3.org/2000/svg">
<g clip-path="url(#clip0_1683_226246)">
<path d="M8.9663 5.46975C8.90555 5.3355 8.77205 5.25 8.62505 5.25H7.12505V0.375C7.12505 0.168 6.95705 0 6.75005 0H5.25005C5.04305 0 4.87505 0.168 4.87505 0.375V5.25H3.37505C3.22805 5.25 3.09455 5.33625 3.0338 5.46975C2.9723 5.604 2.9963 5.76075 3.09305 5.87175L5.71805 8.87175C5.7893 8.9535 5.89205 9 6.00005 9C6.10805 9 6.2108 8.95275 6.28205 8.87175L8.90705 5.87175C9.00455 5.7615 9.02705 5.604 8.9663 5.46975Z" fill="#1642C5"/>
<path d="M10.125 8.25V10.5H1.875V8.25H0.375V11.25C0.375 11.6648 0.711 12 1.125 12H10.875C11.2898 12 11.625 11.6648 11.625 11.25V8.25H10.125Z" fill="#1642C5"/>
</g>
<defs>
<clipPath id="clip0_1683_226246">
<rect width="12" height="12" fill="white"/>
</clipPath>
</defs>
</svg>
