<svg width="12" height="8" viewBox="0 0 12 8" fill="none" xmlns="http://www.w3.org/2000/svg">
<path d="M6.03636 6.99998L6.0356 6.99999C5.94025 7.00052 5.84609 6.98284 5.75868 6.94834C5.67159 6.91398 5.59344 6.86381 5.52826 6.80152C5.52804 6.80131 5.52782 6.8011 5.52759 6.80088L0.702297 2.13882C0.570642 2.01162 0.5 1.84284 0.5 1.67064C0.5 1.49843 0.570643 1.32966 0.702296 1.20246C0.834535 1.07469 1.01745 1 1.21163 1C1.4057 1 1.58852 1.07461 1.72074 1.20224C1.72081 1.20231 1.72089 1.20238 1.72096 1.20246L5.69043 5.04929L6.03787 5.386L6.38581 5.04982L10.3401 1.22929C10.4731 1.12449 10.6441 1.0681 10.8212 1.07471C11.0041 1.08154 11.1745 1.1548 11.2992 1.27525C11.4233 1.39523 11.493 1.55268 11.4995 1.71503C11.5058 1.87202 11.4528 2.0282 11.3466 2.15411L6.53713 6.80088C6.53691 6.80109 6.53669 6.8013 6.53647 6.80151C6.40607 6.92614 6.2268 6.99921 6.03636 6.99998Z" fill="#87888D" stroke="#87888D"/>
</svg>
