<svg width="14" height="14" viewBox="0 0 14 14" fill="none" xmlns="http://www.w3.org/2000/svg">
<path d="M2.84375 1.96875H4.15625C4.3303 1.96875 4.49722 1.89961 4.62029 1.77654C4.74336 1.65347 4.8125 1.48655 4.8125 1.3125C4.8125 1.13845 4.74336 0.971532 4.62029 0.848461C4.49722 0.72539 4.3303 0.65625 4.15625 0.65625H1.3125C1.13845 0.65625 0.971532 0.72539 0.848461 0.848461C0.72539 0.971532 0.65625 1.13845 0.65625 1.3125V4.15625C0.65625 4.3303 0.72539 4.49722 0.848461 4.62029C0.971532 4.74336 1.13845 4.8125 1.3125 4.8125C1.48655 4.8125 1.65347 4.74336 1.77654 4.62029C1.89961 4.49722 1.96875 4.3303 1.96875 4.15625V2.84375L5.14062 6.01562C5.19808 6.07308 5.26628 6.11866 5.34135 6.14975C5.41642 6.18084 5.49687 6.19685 5.57812 6.19685C5.65938 6.19685 5.73983 6.18084 5.8149 6.14975C5.88997 6.11866 5.95817 6.07308 6.01562 6.01562C6.07308 5.95817 6.11866 5.88997 6.14975 5.8149C6.18084 5.73983 6.19685 5.65938 6.19685 5.57812C6.19685 5.49687 6.18084 5.41642 6.14975 5.34135C6.11866 5.26628 6.07308 5.19808 6.01562 5.14062L2.84375 1.96875Z" fill="#1642C5"/>
<path d="M6.01562 7.98396C5.95817 7.9265 5.88997 7.88093 5.8149 7.84983C5.73983 7.81874 5.65938 7.80273 5.57812 7.80273C5.49687 7.80273 5.41642 7.81874 5.34135 7.84983C5.26628 7.88093 5.19808 7.9265 5.14062 7.98396L1.96875 11.1558V9.84333C1.96875 9.66928 1.89961 9.50236 1.77654 9.37929C1.65347 9.25622 1.48655 9.18708 1.3125 9.18708C1.13845 9.18708 0.971532 9.25622 0.848461 9.37929C0.72539 9.50236 0.65625 9.66928 0.65625 9.84333V12.6871C0.65625 12.8611 0.72539 13.028 0.848461 13.1511C0.971532 13.2742 1.13845 13.3433 1.3125 13.3433H4.15625C4.3303 13.3433 4.49722 13.2742 4.62029 13.1511C4.74336 13.028 4.8125 12.8611 4.8125 12.6871C4.8125 12.513 4.74336 12.3461 4.62029 12.223C4.49722 12.1 4.3303 12.0308 4.15625 12.0308H2.84375L6.01562 8.85896C6.07308 8.80151 6.11866 8.7333 6.14975 8.65823C6.18084 8.58317 6.19685 8.50271 6.19685 8.42146C6.19685 8.34021 6.18084 8.25975 6.14975 8.18468C6.11866 8.10962 6.07308 8.04141 6.01562 7.98396Z" fill="#1642C5"/>
<path d="M12.6871 0.65625H9.84333C9.66928 0.65625 9.50236 0.72539 9.37929 0.848461C9.25622 0.971532 9.18708 1.13845 9.18708 1.3125C9.18708 1.48655 9.25622 1.65347 9.37929 1.77654C9.50236 1.89961 9.66928 1.96875 9.84333 1.96875H11.1558L7.98396 5.14062C7.9265 5.19808 7.88093 5.26628 7.84983 5.34135C7.81874 5.41642 7.80273 5.49687 7.80273 5.57812C7.80273 5.65938 7.81874 5.73983 7.84983 5.8149C7.88093 5.88997 7.9265 5.95817 7.98396 6.01562C8.04141 6.07308 8.10962 6.11866 8.18468 6.14975C8.25975 6.18084 8.34021 6.19685 8.42146 6.19685C8.50271 6.19685 8.58317 6.18084 8.65823 6.14975C8.7333 6.11866 8.80151 6.07308 8.85896 6.01562L12.0308 2.84375V4.15625C12.0308 4.3303 12.1 4.49722 12.223 4.62029C12.3461 4.74336 12.513 4.8125 12.6871 4.8125C12.8611 4.8125 13.028 4.74336 13.1511 4.62029C13.2742 4.49722 13.3433 4.3303 13.3433 4.15625V1.3125C13.3433 1.13845 13.2742 0.971532 13.1511 0.848461C13.028 0.72539 12.8611 0.65625 12.6871 0.65625Z" fill="#1642C5"/>
<path d="M12.6871 9.18708C12.513 9.18708 12.3461 9.25622 12.223 9.37929C12.1 9.50236 12.0308 9.66928 12.0308 9.84333V11.1558L8.85896 7.98396C8.80151 7.9265 8.7333 7.88093 8.65823 7.84983C8.58317 7.81874 8.50271 7.80273 8.42146 7.80273C8.34021 7.80273 8.25975 7.81874 8.18468 7.84983C8.10962 7.88093 8.04141 7.9265 7.98396 7.98396C7.9265 8.04141 7.88093 8.10962 7.84983 8.18468C7.81874 8.25975 7.80273 8.34021 7.80273 8.42146C7.80273 8.50271 7.81874 8.58317 7.84983 8.65823C7.88093 8.7333 7.9265 8.80151 7.98396 8.85896L11.1558 12.0308H9.84333C9.66928 12.0308 9.50236 12.1 9.37929 12.223C9.25622 12.3461 9.18708 12.513 9.18708 12.6871C9.18708 12.8611 9.25622 13.028 9.37929 13.1511C9.50236 13.2742 9.66928 13.3433 9.84333 13.3433H12.6871C12.8611 13.3433 13.028 13.2742 13.1511 13.1511C13.2742 13.028 13.3433 12.8611 13.3433 12.6871V9.84333C13.3433 9.66928 13.2742 9.50236 13.1511 9.37929C13.028 9.25622 12.8611 9.18708 12.6871 9.18708Z" fill="#1642C5"/>
</svg>
