<svg width="20" height="19" viewBox="0 0 20 19" fill="none" xmlns="http://www.w3.org/2000/svg">
<path d="M18.75 5.11268H14.795C15.0788 4.91893 15.3225 4.72643 15.4925 4.55393C16.5 3.54018 16.5 1.89018 15.4925 0.876426C14.5138 -0.108574 12.8063 -0.109824 11.8263 0.876426C11.285 1.42018 9.84625 3.63393 10.045 5.11268H9.955C10.1525 3.63393 8.715 1.42018 8.17375 0.876426C7.19375 -0.109824 5.48625 -0.108574 4.5075 0.876426C3.5 1.89018 3.5 3.54018 4.50625 4.55393C4.6775 4.72643 4.92125 4.91893 5.205 5.11268H1.25C0.56125 5.11268 0 5.67393 0 6.36268V9.48768C0 9.83268 0.28 10.1127 0.625 10.1127H1.25V17.6127C1.25 18.3014 1.81125 18.8627 2.5 18.8627H17.5C18.1887 18.8627 18.75 18.3014 18.75 17.6127V10.1127H19.375C19.72 10.1127 20 9.83268 20 9.48768V6.36268C20 5.67393 19.4387 5.11268 18.75 5.11268ZM5.39375 1.75768C5.6475 1.50268 5.98375 1.36268 6.34125 1.36268C6.6975 1.36268 7.03375 1.50268 7.2875 1.75768C8.13 2.60518 8.9675 4.77018 8.67625 5.07143C8.67625 5.07143 8.62375 5.11268 8.445 5.11268C7.58125 5.11268 5.9325 4.21518 5.39375 3.67268C4.87 3.14518 4.87 2.28518 5.39375 1.75768ZM9.375 17.6127H2.5V10.1127H9.375V17.6127ZM9.375 8.86268H1.25V6.36268H8.445H9.375V8.86268ZM12.7125 1.75768C13.22 1.24893 14.1 1.25018 14.6063 1.75768C15.13 2.28518 15.13 3.14518 14.6063 3.67268C14.0675 4.21518 12.4188 5.11268 11.555 5.11268C11.3763 5.11268 11.3237 5.07268 11.3225 5.07143C11.0325 4.77018 11.87 2.60518 12.7125 1.75768ZM17.5 17.6127H10.625V10.1127H17.5V17.6127ZM18.75 8.86268H10.625V6.36268H11.555H18.75V8.86268Z" fill="#1B344F"/>
</svg>
