<svg width="16" height="15" viewBox="0 0 16 15" fill="none" xmlns="http://www.w3.org/2000/svg">
<g clip-path="url(#clip0_1_144309)">
<path d="M2.05078 8.8125H7.6659V14.5794H3.1131C2.53034 14.5794 2.05078 14.0998 2.05078 13.5171V8.8125Z" fill="#D9D9D9"/>
<path d="M14.1913 8.8125V13.5171C14.1913 14.0998 13.7117 14.5794 13.129 14.5794H8.57617V8.8125H14.1913Z" fill="#D9D9D9"/>
<path d="M0.835938 5.32795V6.84555C0.835938 7.4283 1.3155 7.90787 1.89826 7.90787H2.05002H7.66514V6.99731V4.26562H1.89826C1.3155 4.26562 0.835938 4.74519 0.835938 5.32795Z" fill="#D9D9D9"/>
<path d="M14.3431 4.26562H8.57617V6.99731V7.90787H14.1913H14.3431C14.9258 7.90787 15.4054 7.4283 15.4054 6.84555V5.32795C15.4054 4.74519 14.9258 4.26562 14.3431 4.26562Z" fill="#D9D9D9"/>
<path d="M8.12113 4.89472C7.9888 4.89472 7.86253 4.83705 7.77694 4.73689C7.69013 4.63673 7.65189 4.50379 7.67071 4.37267C7.89531 2.85507 9.08086 -0.015625 11.9631 -0.015625C13.6082 -0.015018 14.1915 0.873689 14.1915 1.63492C14.1915 2.98801 12.3079 4.89472 8.12113 4.89472ZM11.9631 0.895542C9.78867 0.895542 8.9631 2.96251 8.68932 3.97081C10.4048 3.89068 11.4866 3.45665 12.1094 3.08696C12.9732 2.57401 13.281 2.00036 13.281 1.63431C13.281 1.08919 12.6005 0.895542 11.9631 0.895542Z" fill="#D9D9D9"/>
<path d="M8.12118 4.89412C3.93443 4.89412 2.05078 2.9874 2.05078 1.63431C2.05078 0.873082 2.63475 -0.015625 4.27983 -0.015625C7.16145 -0.015625 8.347 2.85507 8.57161 4.37267C8.59043 4.50379 8.55218 4.63673 8.46538 4.73689C8.37978 4.83645 8.25352 4.89412 8.12118 4.89412ZM4.27983 0.894935C3.64244 0.894935 2.96134 1.08919 2.96134 1.63431C2.96134 2.4095 4.31686 3.82208 7.55239 3.97081C7.27922 2.96191 6.45364 0.894935 4.27983 0.894935Z" fill="#D9D9D9"/>
</g>
<defs>
<clipPath id="clip0_1_144309">
<rect width="14.569" height="14.569" fill="white" transform="translate(0.835938 0.015625)"/>
</clipPath>
</defs>
</svg>
