<svg width="12" height="13" viewBox="0 0 12 13" fill="none" xmlns="http://www.w3.org/2000/svg">
<path d="M5.79341 0.128906C4.00112 0.128906 2.54297 1.58705 2.54297 3.37934C2.54297 5.17164 4.00112 6.62978 5.79341 6.62978C7.5857 6.62978 9.04384 5.17164 9.04384 3.37934C9.04384 1.58705 7.5857 0.128906 5.79341 0.128906Z" fill="#D9D9D9"/>
<path d="M9.83559 8.76055C8.94569 7.85698 7.76598 7.35938 6.51374 7.35938H5.0691C3.81689 7.35938 2.63715 7.85698 1.74725 8.76055C0.861709 9.6597 0.374023 10.8466 0.374023 12.1026C0.374023 12.3021 0.535727 12.4638 0.735183 12.4638H10.8477C11.0471 12.4638 11.2088 12.3021 11.2088 12.1026C11.2088 10.8466 10.7211 9.6597 9.83559 8.76055Z" fill="#D9D9D9"/>
</svg>
