<svg width="20" height="20" viewBox="0 0 20 20" fill="none" xmlns="http://www.w3.org/2000/svg">
<path d="M18.6698 10.2591C18.5893 10.0945 18.5893 9.90564 18.6698 9.74103L19.4157 8.21506C19.831 7.36542 19.502 6.35273 18.6666 5.90949L17.1662 5.1134C17.0043 5.02754 16.8933 4.87473 16.8617 4.6943L16.5682 3.02131C16.4048 2.08983 15.5432 1.46389 14.607 1.59635L12.9252 1.83424C12.7437 1.85987 12.5642 1.80151 12.4325 1.67413L11.2118 0.493195C10.5321 -0.164379 9.46725 -0.164418 8.78757 0.493195L7.56679 1.67424C7.43508 1.80166 7.25559 1.85991 7.0741 1.83436L5.39235 1.59647C4.45584 1.46393 3.59451 2.08994 3.43112 3.02142L3.13768 4.69434C3.106 4.87481 2.99502 5.02758 2.83319 5.11348L1.33281 5.90957C0.497422 6.35277 0.168361 7.36554 0.583671 8.21518L1.32957 9.74111C1.41003 9.90576 1.41003 10.0946 1.32957 10.2592L0.583632 11.7851C0.168322 12.6348 0.497382 13.6475 1.33277 14.0907L2.83315 14.8868C2.99502 14.9726 3.106 15.1255 3.13768 15.3059L3.43112 16.9789C3.57986 17.8268 4.30697 18.4215 5.14263 18.4214C5.22493 18.4214 5.30845 18.4157 5.39239 18.4038L7.07414 18.1659C7.25551 18.1402 7.43512 18.1986 7.56683 18.326L8.78757 19.507C9.12749 19.8358 9.5635 20.0002 9.99967 20.0001C10.4357 20.0001 10.872 19.8357 11.2118 19.507L12.4325 18.326C12.5643 18.1986 12.7438 18.1404 12.9252 18.1659L14.607 18.4038C15.5436 18.5363 16.4048 17.9103 16.5682 16.9788L16.8617 15.3059C16.8934 15.1255 17.0044 14.9727 17.1662 14.8868L18.6666 14.0907C19.502 13.6475 19.831 12.6347 19.4157 11.7851L18.6698 10.2591ZM7.69261 4.80926C8.8587 4.80926 9.80741 5.75797 9.80741 6.92406C9.80741 8.09014 8.8587 9.03885 7.69261 9.03885C6.52653 9.03885 5.57782 8.09014 5.57782 6.92406C5.57782 5.75797 6.52653 4.80926 7.69261 4.80926ZM6.60106 14.2143C6.48844 14.3269 6.34083 14.3832 6.19325 14.3832C6.04567 14.3832 5.89802 14.3269 5.78544 14.2143C5.5602 13.9891 5.5602 13.6239 5.78544 13.3986L13.3982 5.78582C13.6234 5.56059 13.9887 5.56059 14.2139 5.78582C14.4391 6.01105 14.4391 6.37625 14.2139 6.60148L6.60106 14.2143ZM12.3066 15.1909C11.1406 15.1909 10.1919 14.2422 10.1919 13.0761C10.1919 11.91 11.1406 10.9613 12.3066 10.9613C13.4727 10.9613 14.4214 11.91 14.4214 13.0761C14.4214 14.2422 13.4727 15.1909 12.3066 15.1909Z" fill="#1B344F"/>
</svg>
