<svg width="12" height="13" viewBox="0 0 12 13" fill="none" xmlns="http://www.w3.org/2000/svg">
<path d="M5.79145 0.144531C3.99916 0.144531 2.54102 1.60268 2.54102 3.39497C2.54102 5.18726 3.99916 6.64541 5.79145 6.64541C7.58375 6.64541 9.04189 5.18726 9.04189 3.39497C9.04189 1.60268 7.58375 0.144531 5.79145 0.144531Z" fill="#D9D9D9"/>
<path d="M9.83559 8.76446C8.94569 7.86089 7.76598 7.36328 6.51374 7.36328H5.0691C3.81689 7.36328 2.63715 7.86089 1.74725 8.76446C0.861709 9.6636 0.374023 10.8505 0.374023 12.1065C0.374023 12.306 0.535727 12.4677 0.735183 12.4677H10.8477C11.0471 12.4677 11.2088 12.306 11.2088 12.1065C11.2088 10.8505 10.7211 9.6636 9.83559 8.76446Z" fill="#D9D9D9"/>
</svg>
