<svg width="4" height="14" viewBox="0 0 4 14" fill="none" xmlns="http://www.w3.org/2000/svg">
<path d="M0.414062 7.0006C0.414062 7.87531 1.12589 8.58714 2.0006 8.58714C2.87531 8.58714 3.58714 7.87531 3.58714 7.0006C3.58714 6.12589 2.87531 5.41406 2.0006 5.41406C1.12589 5.41406 0.414062 6.12589 0.414062 7.0006Z" fill="#1A1D25"/>
<path d="M0.414062 12.2884C0.414062 13.1632 1.12589 13.875 2.0006 13.875C2.87531 13.875 3.58714 13.1632 3.58714 12.2884C3.58714 11.4137 2.87531 10.7019 2.0006 10.7019C1.12589 10.7019 0.414062 11.4137 0.414062 12.2884Z" fill="#1A1D25"/>
<path d="M0.414062 1.71154C0.414062 2.58625 1.12589 3.29808 2.0006 3.29808C2.87531 3.29808 3.58714 2.58625 3.58714 1.71154C3.58714 0.836827 2.87531 0.125 2.0006 0.125C1.12589 0.125 0.414062 0.836827 0.414062 1.71154Z" fill="#1A1D25"/>
</svg>
