<svg width="14" height="13" viewBox="0 0 14 13" fill="none" xmlns="http://www.w3.org/2000/svg">
<path d="M13.5179 6.20035L7.65759 0.344309C7.61539 0.30203 7.56527 0.268488 7.5101 0.245603C7.45492 0.222717 7.39578 0.210938 7.33604 0.210938C7.27631 0.210938 7.21717 0.222717 7.16199 0.245603C7.10682 0.268488 7.0567 0.30203 7.0145 0.344309L1.1542 6.20035C0.983466 6.37108 0.886719 6.60299 0.886719 6.84486C0.886719 7.34709 1.29505 7.75542 1.79728 7.75542H2.41475V11.934C2.41475 12.1859 2.61821 12.3893 2.87003 12.3893H6.42548V9.20235H8.01896V12.3893H11.8021C12.0539 12.3893 12.2573 12.1859 12.2573 11.934V7.75542H12.8748C13.1167 7.75542 13.3486 7.66009 13.5193 7.48794C13.8736 7.13225 13.8736 6.55604 13.5179 6.20035Z" fill="#1B344F"/>
</svg>
