<svg width="16" height="16" viewBox="0 0 16 16" fill="none" xmlns="http://www.w3.org/2000/svg">
<path d="M15.4323 6.78824C15.4318 6.7879 15.4315 6.78744 15.4311 6.78709L9.27152 0.627705C9.00897 0.36504 8.6599 0.220459 8.2886 0.220459C7.91729 0.220459 7.56823 0.36504 7.30556 0.627705L1.14917 6.78398C1.1471 6.78606 1.14491 6.78824 1.14295 6.79032C0.603793 7.33258 0.604715 8.2124 1.1456 8.75328C1.39271 9.00051 1.71897 9.14359 2.06792 9.15868C2.08221 9.16007 2.09649 9.16076 2.11089 9.16076H2.35628V13.6936C2.35628 14.5907 3.08621 15.3205 3.98331 15.3205H6.39314C6.63749 15.3205 6.83553 15.1223 6.83553 14.8781V11.3243C6.83553 10.915 7.16858 10.582 7.5779 10.582H8.99929C9.40861 10.582 9.74155 10.915 9.74155 11.3243V14.8781C9.74155 15.1223 9.93959 15.3205 10.1839 15.3205H12.5938C13.491 15.3205 14.2208 14.5907 14.2208 13.6936V9.16076H14.4484C14.8196 9.16076 15.1687 9.01618 15.4315 8.7534C15.9729 8.21171 15.9732 7.33028 15.4323 6.78824ZM14.8058 8.12784C14.7103 8.22334 14.5833 8.27599 14.4484 8.27599H13.7784C13.5341 8.27599 13.336 8.47403 13.336 8.71837V13.6936C13.336 14.1028 13.0031 14.4357 12.5938 14.4357H10.6263V11.3243C10.6263 10.4272 9.8965 9.69726 8.99929 9.69726H7.5779C6.68069 9.69726 5.95076 10.4272 5.95076 11.3243V14.4357H3.98331C3.5741 14.4357 3.24105 14.1028 3.24105 13.6936V8.71837C3.24105 8.47403 3.04301 8.27599 2.79866 8.27599H2.14016C2.13324 8.27553 2.12645 8.27518 2.11942 8.27507C1.98762 8.27276 1.86401 8.22046 1.77139 8.12772C1.57439 7.93072 1.57439 7.61011 1.77139 7.413C1.7715 7.413 1.7715 7.41288 1.77162 7.41277L1.77196 7.41242L7.93135 1.25326C8.02674 1.15776 8.15358 1.10523 8.2886 1.10523C8.4235 1.10523 8.55034 1.15776 8.64584 1.25326L14.8038 7.41115C14.8048 7.41207 14.8058 7.413 14.8067 7.41392C15.0027 7.61126 15.0023 7.93118 14.8058 8.12784Z" fill="#87888D"/>
</svg>
