<svg width="24" height="24" viewBox="0 0 24 24" fill="none" xmlns="http://www.w3.org/2000/svg">
<path d="M2.76953 23.597L3.98736 22.474C4.75356 21.7627 5.93547 21.7532 6.71302 22.4518L8.25518 23.8278C8.51242 24.0581 8.90226 24.0573 9.15818 23.8255L10.6779 22.4544C11.4491 21.7556 12.6244 21.7556 13.3956 22.4544L14.9153 23.8255C15.1713 24.0571 15.5611 24.0581 15.8183 23.8278L17.3605 22.4515C18.1381 21.753 19.3202 21.7627 20.0862 22.474L21.304 23.597V0H2.76953V23.597ZM7.51698 7.82807H16.195C16.5684 7.82807 16.8711 8.13101 16.8711 8.5042C16.8711 8.87766 16.5684 9.18034 16.195 9.18034H7.51698C7.14352 9.18034 6.84085 8.87766 6.84085 8.5042C6.84085 8.13101 7.14352 7.82807 7.51698 7.82807ZM7.51698 12.5288H16.195C16.5684 12.5288 16.8711 12.8314 16.8711 13.2049C16.8711 13.5784 16.5684 13.881 16.195 13.881H7.51698C7.14352 13.881 6.84085 13.5784 6.84085 13.2049C6.84085 12.8314 7.14352 12.5288 7.51698 12.5288Z" fill="#1A1D25"/>
</svg>
