<svg width="18" height="18" viewBox="0 0 18 18" fill="none" xmlns="http://www.w3.org/2000/svg">
<path d="M17.436 2.125V15.875C17.436 16.9088 16.5948 17.75 15.561 17.75H7.12352C6.08977 17.75 5.24852 16.9088 5.24852 15.875V11.5C5.23852 10.6875 6.50914 10.69 6.49852 11.5V15.875C6.49852 16.22 6.77852 16.5 7.12352 16.5H15.561C15.906 16.5 16.186 16.22 16.186 15.875V2.125C16.186 1.78 15.906 1.5 15.561 1.5H7.12352C6.77852 1.5 6.49852 1.78 6.49852 2.125V6.5C6.51289 7.3125 5.23477 7.31 5.24852 6.5V2.125C5.24852 1.09125 6.08977 0.25 7.12352 0.25H15.561C16.5948 0.25 17.436 1.09125 17.436 2.125ZM2.82977 9.625H10.561C10.9066 9.625 11.186 9.34562 11.186 9C11.186 8.65438 10.9066 8.375 10.561 8.375H2.82977L4.41352 6.96688C5.02727 6.43937 4.18102 5.4825 3.58352 6.03312L0.771016 8.53312C0.498516 8.78375 0.497891 9.21625 0.771016 9.46688C0.998516 9.5925 3.73602 12.3094 3.99852 12.125C4.54914 12.1444 4.84789 11.3913 4.41352 11.0331L2.82977 9.625Z" fill="#F24F7D"/>
</svg>
