<svg width="20" height="20" viewBox="0 0 20 20" fill="none" xmlns="http://www.w3.org/2000/svg">
<path d="M17 3.00049H16V1.00049C16 0.735272 15.8946 0.480918 15.7071 0.293381C15.5196 0.105845 15.2652 0.000488281 15 0.000488281C14.7348 0.000488281 14.4804 0.105845 14.2929 0.293381C14.1054 0.480918 14 0.735272 14 1.00049V3.00049H6V1.00049C6 0.735272 5.89464 0.480918 5.70711 0.293381C5.51957 0.105845 5.26522 0.000488281 5 0.000488281C4.73478 0.000488281 4.48043 0.105845 4.29289 0.293381C4.10536 0.480918 4 0.735272 4 1.00049V3.00049H3C2.20435 3.00049 1.44129 3.31656 0.87868 3.87917C0.316071 4.44178 0 5.20484 0 6.00049V7.00049H20V6.00049C20 5.20484 19.6839 4.44178 19.1213 3.87917C18.5587 3.31656 17.7957 3.00049 17 3.00049Z" fill="#1B344F"/>
<path d="M0 17.0005C0 17.7961 0.316071 18.5592 0.87868 19.1218C1.44129 19.6844 2.20435 20.0005 3 20.0005H17C17.7957 20.0005 18.5587 19.6844 19.1213 19.1218C19.6839 18.5592 20 17.7961 20 17.0005V9.00049H0V17.0005Z" fill="#1B344F"/>
</svg>
