<svg width="16" height="14" viewBox="0 0 16 14" fill="none" xmlns="http://www.w3.org/2000/svg">
<path d="M4.68257 6.1923H14.8684C15.1289 6.1923 15.3402 6.38389 15.3402 6.62014C15.3402 6.85639 15.1289 7.04797 14.8684 7.04797H4.68257L7.65207 9.74024C7.83629 9.90735 7.83629 10.1783 7.65207 10.3454C7.46775 10.5124 7.16896 10.5124 6.98465 10.3454L3.2097 6.9227C3.02541 6.75559 3.02541 6.48469 3.2097 6.31757L6.98465 2.89495C7.16896 2.72786 7.46775 2.72786 7.65207 2.89495C7.83629 3.06203 7.83629 3.33291 7.65207 3.49999L4.68257 6.1923ZM0.240234 0.63047C0.240234 0.394186 0.451502 0.202637 0.712109 0.202637C0.972717 0.202637 1.18398 0.394186 1.18398 0.63047V12.6098C1.18398 12.8461 0.972717 13.0376 0.712109 13.0376C0.451502 13.0376 0.240234 12.8461 0.240234 12.6098V0.63047Z" fill="#1A1D25"/>
</svg>
