<svg width="20" height="12" viewBox="0 0 20 12" fill="none" xmlns="http://www.w3.org/2000/svg">
<path d="M0.132183 6.32038L4.67753 10.8658C4.84081 11.0564 5.12776 11.0787 5.31842 10.9153C5.50908 10.7521 5.53131 10.4651 5.36799 10.2745C5.35276 10.2567 5.33619 10.2401 5.31842 10.2249L1.55032 6.45221L19.5455 6.45221C19.7965 6.45221 20 6.2487 20 5.99765C20 5.7466 19.7965 5.54313 19.5455 5.54313L1.55032 5.54313L5.31842 1.77503C5.50908 1.61175 5.53131 1.3248 5.36799 1.13414C5.20467 0.943481 4.91776 0.921256 4.7271 1.08457C4.70933 1.09981 4.69273 1.11637 4.67753 1.13414L0.132143 5.67953C-0.0440655 5.85675 -0.0440636 6.14308 0.132183 6.32038Z" fill="black"/>
</svg>
