<svg width="18" height="22" viewBox="0 0 18 22" fill="none" xmlns="http://www.w3.org/2000/svg">
<path d="M17.6191 7.45C16.5691 2.83 12.5391 0.75 8.99912 0.75C8.99912 0.75 8.99912 0.75 8.98912 0.75C5.45912 0.75 1.41912 2.82 0.369119 7.44C-0.800881 12.6 2.35912 16.97 5.21912 19.72C6.27912 20.74 7.63912 21.25 8.99912 21.25C10.3591 21.25 11.7191 20.74 12.7691 19.72C15.6291 16.97 18.7891 12.61 17.6191 7.45ZM8.99912 12.46C7.25912 12.46 5.84912 11.05 5.84912 9.31C5.84912 7.57 7.25912 6.16 8.99912 6.16C10.7391 6.16 12.1491 7.57 12.1491 9.31C12.1491 11.05 10.7391 12.46 8.99912 12.46Z" fill="#1B344F"/>
</svg>
