<svg width="180" height="40" viewBox="0 0 180 40" fill="none" xmlns="http://www.w3.org/2000/svg">
<g clip-path="url(#clip0_902_39583)">
<path d="M162.729 1.33733H160.15V0H166.836V1.33733H164.273V8.41517H162.729V1.33733Z" fill="#1F293C"/>
<path d="M168.295 0H170.744L173.141 6.52695L175.554 0H178.004V8.41517H176.448V1.4491L173.82 8.41517H172.483L169.855 1.4491V8.41517H168.299V0H168.295Z" fill="#1F293C"/>
<path fill-rule="evenodd" clip-rule="evenodd" d="M2 0H30.7391V6.16766H9.397V16.4671H28.9202V22.2754H9.397V40H2V0ZM36.4991 0H43.8961V33.5928H62.2067V40H36.4991V0ZM89.9515 0H81.8876L65.7597 40H73.763L76.6733 32.2754H95.1051L98.0761 40H106.079L89.9515 0ZM85.9498 7.60479L93.0437 26.2874H78.7954L85.9498 7.60479ZM110.041 0H117.438V40H110.041V0ZM140.401 0H123.666V40H131.063V24.2515H137.854L149.01 40H157.68L145.554 23.7725C151.981 22.4551 155.619 18.9222 155.619 12.1557C155.619 4.01198 150.223 0 140.401 0ZM148.161 12.2156C148.161 16.5868 145.251 18.4431 139.127 18.4431H131.063V5.92814H139.127C145.554 5.92814 148.161 7.84431 148.161 12.2156Z" fill="url(#paint0_linear_902_39583)"/>
</g>
<defs>
<linearGradient id="paint0_linear_902_39583" x1="-16.3914" y1="27.9441" x2="173.384" y2="29.1719" gradientUnits="userSpaceOnUse">
<stop stop-color="#2F3E5B"/>
<stop offset="1" stop-color="#1A2333"/>
</linearGradient>
<clipPath id="clip0_902_39583">
<rect width="176" height="40" fill="white" transform="translate(2)"/>
</clipPath>
</defs>
</svg>
