<svg width="27" height="33" viewBox="0 0 27 33" fill="none" xmlns="http://www.w3.org/2000/svg">
<path d="M22.6085 17.73C22.5713 13.7012 25.9903 11.7412 26.1466 11.65C24.2103 8.89624 21.2091 8.51999 20.1544 8.48999C17.6338 8.23124 15.1887 9.96124 13.9046 9.96124C12.595 9.96124 10.6176 8.51499 8.48654 8.55749C5.74417 8.59874 3.17864 10.1475 1.77157 12.5525C-1.13226 17.4562 1.03344 24.6625 3.81554 28.6262C5.20723 30.5675 6.83343 32.735 8.96197 32.6587C11.0444 32.575 11.8222 31.3637 14.3352 31.3637C16.8251 31.3637 17.5556 32.6587 19.7264 32.61C21.9613 32.575 23.3684 30.66 24.7114 28.7012C26.3196 26.4762 26.9655 24.285 26.9911 24.1725C26.9386 24.155 22.6508 22.5587 22.6085 17.73Z" fill="white"/>
<path d="M18.5077 5.88249C19.6277 4.51624 20.3941 2.65749 20.1813 0.77124C18.5603 0.84124 16.533 1.86499 15.3655 3.20124C14.3327 4.37874 13.41 6.30874 13.6483 8.12374C15.4693 8.25624 17.339 7.22749 18.5077 5.88249Z" fill="white"/>
</svg>
