<svg width="13" height="14" viewBox="0 0 13 14" fill="none" xmlns="http://www.w3.org/2000/svg">
<path d="M6.46022 0.933594C3.11749 0.933594 0.393555 3.65753 0.393555 7.00026C0.393555 10.343 3.11749 13.0669 6.46022 13.0669C9.80295 13.0669 12.5269 10.343 12.5269 7.00026C12.5269 3.65753 9.80295 0.933594 6.46022 0.933594ZM8.88689 7.45526H6.91522V9.42693C6.91522 9.67566 6.70895 9.88193 6.46022 9.88193C6.21149 9.88193 6.00522 9.67566 6.00522 9.42693V7.45526H4.03355C3.78482 7.45526 3.57855 7.24899 3.57855 7.00026C3.57855 6.75153 3.78482 6.54526 4.03355 6.54526H6.00522V4.57359C6.00522 4.32486 6.21149 4.11859 6.46022 4.11859C6.70895 4.11859 6.91522 4.32486 6.91522 4.57359V6.54526H8.88689C9.13562 6.54526 9.34189 6.75153 9.34189 7.00026C9.34189 7.24899 9.13562 7.45526 8.88689 7.45526Z" fill="#8B9CBB"/>
</svg>
