<svg width="15" height="16" viewBox="0 0 15 16" fill="none" xmlns="http://www.w3.org/2000/svg">
<path d="M12.3932 8.0012V11.6412C12.3932 12.9819 11.3073 14.0679 9.96652 14.0679H5.11319C3.77246 14.0679 2.68652 12.9819 2.68652 11.6412V8.0012C2.68652 7.66753 2.95952 7.39453 3.29319 7.39453H4.48832C4.82199 7.39453 5.09499 7.66753 5.09499 8.0012V9.90613C5.09499 10.3551 5.34372 10.7676 5.73806 10.9799C5.91399 11.077 6.10812 11.1255 6.30832 11.1255C6.53886 11.1255 6.76939 11.0588 6.96959 10.9253L7.54592 10.5492L8.07979 10.9071C8.44986 11.1559 8.92306 11.1862 9.31739 10.9739C9.71779 10.7615 9.96652 10.3551 9.96652 9.90006V8.0012C9.96652 7.66753 10.2395 7.39453 10.5732 7.39453H11.7865C12.1202 7.39453 12.3932 7.66753 12.3932 8.0012Z" fill="#8B9CBB"/>
<path d="M13.303 4.96724V5.57391C13.303 6.24124 12.9815 6.78724 12.0897 6.78724H2.9897C2.0615 6.78724 1.77637 6.24124 1.77637 5.57391V4.96724C1.77637 4.29991 2.0615 3.75391 2.9897 3.75391H12.0897C12.9815 3.75391 13.303 4.29991 13.303 4.96724Z" fill="#8B9CBB"/>
<path d="M7.32135 3.75403H3.97255C3.76628 3.52956 3.77235 3.18376 3.99075 2.96536L4.85221 2.1039C5.07668 1.87943 5.44675 1.87943 5.67121 2.1039L7.32135 3.75403Z" fill="#8B9CBB"/>
<path d="M11.1012 3.75403H7.75244L9.40257 2.1039C9.62704 1.87943 9.99711 1.87943 10.2216 2.1039L11.083 2.96536C11.3014 3.18376 11.3075 3.52956 11.1012 3.75403Z" fill="#8B9CBB"/>
<path d="M8.73513 7.39453C9.06879 7.39453 9.34179 7.66753 9.34179 8.0012V9.90006C9.34179 10.3854 8.80186 10.6766 8.40146 10.4036L7.85546 10.0396C7.65526 9.90613 7.39439 9.90613 7.18813 10.0396L6.61786 10.4157C6.21746 10.6827 5.68359 10.3915 5.68359 9.9122V8.0012C5.68359 7.66753 5.95659 7.39453 6.29026 7.39453H8.73513Z" fill="#8B9CBB"/>
</svg>
