<svg width="16" height="16" viewBox="0 0 16 16" fill="none" xmlns="http://www.w3.org/2000/svg">
<path d="M14.2466 8.00026C14.2466 4.65753 11.5227 1.93359 8.17995 1.93359C4.83721 1.93359 2.11328 4.65753 2.11328 8.00026C2.11328 9.75959 2.87161 11.343 4.07281 12.4532C4.07281 12.4593 4.07281 12.4593 4.06675 12.4653C4.12741 12.526 4.20021 12.5745 4.26088 12.6291C4.29728 12.6595 4.32761 12.6898 4.36401 12.7141C4.47321 12.8051 4.59455 12.89 4.70981 12.9749C4.75228 13.0053 4.78868 13.0295 4.83115 13.0599C4.94641 13.1387 5.06775 13.2115 5.19515 13.2783C5.23761 13.3025 5.28615 13.3329 5.32861 13.3571C5.44995 13.4239 5.57735 13.4845 5.71081 13.5391C5.75935 13.5634 5.80788 13.5877 5.85641 13.6059C5.98988 13.6605 6.12335 13.709 6.25681 13.7515C6.30535 13.7697 6.35388 13.7879 6.40241 13.8C6.54801 13.8425 6.69361 13.8789 6.83921 13.9153C6.88168 13.9274 6.92415 13.9395 6.97268 13.9456C7.14255 13.982 7.31241 14.0063 7.48835 14.0245C7.51261 14.0245 7.53688 14.0305 7.56115 14.0366C7.76741 14.0548 7.97368 14.0669 8.17995 14.0669C8.38621 14.0669 8.59248 14.0548 8.79268 14.0366C8.81695 14.0366 8.84121 14.0305 8.86548 14.0245C9.04141 14.0063 9.21128 13.982 9.38115 13.9456C9.42361 13.9395 9.46608 13.9213 9.51461 13.9153C9.66021 13.8789 9.81188 13.8485 9.95142 13.8C9.99995 13.7818 10.0485 13.7636 10.097 13.7515C10.2305 13.7029 10.37 13.6605 10.4974 13.6059C10.5459 13.5877 10.5945 13.5634 10.643 13.5391C10.7704 13.4845 10.8978 13.4239 11.0252 13.3571C11.0737 13.3329 11.1162 13.3025 11.1587 13.2783C11.28 13.2055 11.4013 13.1387 11.5227 13.0599C11.5651 13.0356 11.6015 13.0053 11.644 12.9749C11.7653 12.89 11.8806 12.8051 11.9898 12.7141C12.0262 12.6837 12.0565 12.6534 12.0929 12.6291C12.1597 12.5745 12.2264 12.5199 12.2871 12.4653C12.2871 12.4593 12.2871 12.4593 12.281 12.4532C13.4883 11.343 14.2466 9.75959 14.2466 8.00026ZM11.1769 11.0154C9.53281 9.91126 6.83921 9.91126 5.18301 11.0154C4.91608 11.1913 4.69768 11.3976 4.51568 11.6221C3.59355 10.6878 3.02328 9.40773 3.02328 8.00026C3.02328 5.15499 5.33468 2.84359 8.17995 2.84359C11.0252 2.84359 13.3366 5.15499 13.3366 8.00026C13.3366 9.40773 12.7663 10.6878 11.8442 11.6221C11.6683 11.3976 11.4438 11.1913 11.1769 11.0154Z" fill="#8B9CBB"/>
<path d="M8.17979 4.92578C6.92399 4.92578 5.90479 5.94498 5.90479 7.20078C5.90479 8.43232 6.86939 9.43332 8.14945 9.46972C8.16765 9.46972 8.19192 9.46972 8.20405 9.46972C8.21619 9.46972 8.23439 9.46972 8.24652 9.46972C8.25258 9.46972 8.25865 9.46972 8.25865 9.46972C9.48412 9.42725 10.4487 8.43232 10.4548 7.20078C10.4548 5.94498 9.43559 4.92578 8.17979 4.92578Z" fill="#8B9CBB"/>
</svg>
