<svg width="16" height="16" viewBox="0 0 16 16" fill="" xmlns="http://www.w3.org/2000/svg">
<path d="M12.6974 4.85831L9.203 2.41344C8.25054 1.74611 6.78847 1.78251 5.8724 2.49231L2.833 4.86438C2.22634 5.33758 1.74707 6.30824 1.74707 7.07264V11.2586C1.74707 12.8056 3.00287 14.0675 4.54987 14.0675H11.0897C12.6367 14.0675 13.8925 12.8117 13.8925 11.2647V7.15151C13.8925 6.33251 13.3647 5.32544 12.6974 4.85831ZM8.2748 11.6408C8.2748 11.8896 8.06854 12.0958 7.8198 12.0958C7.57107 12.0958 7.3648 11.8896 7.3648 11.6408V9.82084C7.3648 9.57211 7.57107 9.36584 7.8198 9.36584C8.06854 9.36584 8.2748 9.57211 8.2748 9.82084V11.6408Z" fill="#1642C5"/>
</svg>
