<svg width="60" height="14" viewBox="0 0 60 14" fill="none" xmlns="http://www.w3.org/2000/svg">
<g clip-path="url(#clip0_3007_34044)">
<path d="M54.2044 0.689576H53.354V0.240234H55.5588V0.689576H54.7136V3.06773H54.2044V0.689576Z" fill="#1F293C"/>
<path d="M56.04 0.240234H56.8478L57.6383 2.43329L58.4341 0.240234H59.2419V3.06773H58.7287V0.727133L57.8622 3.06773H57.421L56.5546 0.727133V3.06773H56.0414V0.240234H56.04Z" fill="#1F293C"/>
<path fill-rule="evenodd" clip-rule="evenodd" d="M1.19971 0.240234H10.6772V2.31257H3.63907V5.77317H10.0774V7.72479H3.63907V13.6802H1.19971V0.240234ZM12.5765 0.240234H15.0159V11.5274H21.0543V13.6802H12.5765V0.240234ZM30.204 0.240234H27.5447L22.2261 13.6802H24.8654L25.8252 11.0848H31.9036L32.8833 13.6802H35.5226L30.204 0.240234ZM28.8844 2.79544L31.2238 9.07281H26.525L28.8844 2.79544ZM36.829 0.240234H39.2684V13.6802H36.829V0.240234ZM46.841 0.240234H41.3224V13.6802H43.7618V8.38874H46.0012L49.6802 13.6802H52.5395L48.5405 8.22778C50.66 7.78514 51.8597 6.59808 51.8597 4.32455C51.8597 1.58826 50.0801 0.240234 46.841 0.240234ZM49.4003 4.34467C49.4003 5.81341 48.4406 6.43712 46.4211 6.43712H43.7618V2.23209H46.4211C48.5405 2.23209 49.4003 2.87592 49.4003 4.34467Z" fill="url(#paint0_linear_3007_34044)"/>
</g>
<defs>
<linearGradient id="paint0_linear_3007_34044" x1="-4.86536" y1="9.62946" x2="57.7182" y2="10.0269" gradientUnits="userSpaceOnUse">
<stop stop-color="#2F3E5B"/>
<stop offset="1" stop-color="#1A2333"/>
</linearGradient>
<clipPath id="clip0_3007_34044">
<rect width="58.0409" height="13.44" fill="white" transform="translate(1.19971 0.240234)"/>
</clipPath>
</defs>
</svg>
