<svg width="11" height="10" viewBox="0 0 11 10" fill="none" xmlns="http://www.w3.org/2000/svg">
<path d="M5.49967 0.654297C2.92834 0.654297 0.833008 2.74963 0.833008 5.32096C0.833008 7.8923 2.92834 9.98763 5.49967 9.98763C8.07101 9.98763 10.1663 7.8923 10.1663 5.32096C10.1663 2.74963 8.07101 0.654297 5.49967 0.654297ZM7.06767 6.3943C7.20301 6.52963 7.20301 6.75363 7.06767 6.88896C6.99767 6.95896 6.90901 6.99163 6.82034 6.99163C6.73167 6.99163 6.64301 6.95896 6.57301 6.88896L5.49967 5.81563L4.42634 6.88896C4.35634 6.95896 4.26767 6.99163 4.17901 6.99163C4.09034 6.99163 4.00167 6.95896 3.93167 6.88896C3.79634 6.75363 3.79634 6.52963 3.93167 6.3943L5.00501 5.32096L3.93167 4.24763C3.79634 4.1123 3.79634 3.8883 3.93167 3.75296C4.06701 3.61763 4.29101 3.61763 4.42634 3.75296L5.49967 4.8263L6.57301 3.75296C6.70834 3.61763 6.93234 3.61763 7.06767 3.75296C7.20301 3.8883 7.20301 4.1123 7.06767 4.24763L5.99434 5.32096L7.06767 6.3943Z" fill="#8B9CBB"/>
</svg>
