<svg width="7" height="6" viewBox="0 0 7 6" fill="none" xmlns="http://www.w3.org/2000/svg">
<path d="M3.25996 0C1.71716 0 0.459961 1.2572 0.459961 2.8C0.459961 4.3428 1.71716 5.6 3.25996 5.6C4.80276 5.6 6.05996 4.3428 6.05996 2.8C6.05996 1.2572 4.80276 0 3.25996 0ZM4.47796 3.7996C4.43876 3.8668 4.36876 3.9032 4.29596 3.9032C4.25956 3.9032 4.22316 3.8948 4.18956 3.8724L3.32156 3.3544C3.10596 3.2256 2.94636 2.9428 2.94636 2.6936V1.5456C2.94636 1.4308 3.04156 1.3356 3.15636 1.3356C3.27116 1.3356 3.36636 1.4308 3.36636 1.5456V2.6936C3.36636 2.7944 3.45036 2.9428 3.53716 2.9932L4.40516 3.5112C4.50596 3.57 4.53956 3.6988 4.47796 3.7996Z" fill="#8B9CBB"/>
</svg>
