<svg width="17" height="17" viewBox="0 0 17 17" fill="none" xmlns="http://www.w3.org/2000/svg">
<g clip-path="url(#clip0_3007_33979)">
<path d="M1.81559 10.9145H7.09442C7.19655 10.915 7.2901 10.8575 7.33581 10.7661C7.54855 10.3401 8.14679 9.14419 8.14679 9.14419C8.18914 9.06038 8.18497 8.96058 8.13573 8.8806C8.08652 8.80061 7.99931 8.75192 7.90539 8.75195H2.62653C2.52416 8.75201 2.43061 8.80986 2.38486 8.90145L1.57392 10.5234C1.53206 10.6072 1.53653 10.7066 1.58577 10.7863C1.63498 10.866 1.72192 10.9145 1.81559 10.9145Z" fill="#1642C5"/>
<path d="M2.83283 16.3212H8.50957V9.62695L7.74484 11.158C7.65343 11.3412 7.4659 11.4565 7.26122 11.4554H2.5625V16.0508C2.5625 16.2002 2.68352 16.3212 2.83283 16.3212Z" fill="#1642C5"/>
<path d="M14.9974 16.0508V11.4554H10.2986C10.0936 11.4562 9.90594 11.3402 9.81502 11.1564L9.05029 9.62695V16.3212H14.727C14.8763 16.3211 14.9974 16.2001 14.9974 16.0508Z" fill="#1642C5"/>
<path d="M14.9338 8.75195H9.65494C9.56129 8.75201 9.47433 8.80052 9.42512 8.8802C9.37591 8.95988 9.37141 9.05934 9.41327 9.14312L10.2242 10.7651C10.27 10.8566 10.3635 10.9145 10.4659 10.9146H15.7447C15.8384 10.9145 15.9253 10.866 15.9746 10.7863C16.0238 10.7066 16.0283 10.6072 15.9864 10.5234L15.1754 8.90145C15.1297 8.80986 15.0361 8.75201 14.9338 8.75195Z" fill="#1642C5"/>
<path d="M6.59619 6.8118C6.55727 6.99281 6.62575 7.1801 6.77221 7.29334C6.91868 7.40658 7.11717 7.42569 7.28253 7.34246L8.56169 6.64286C8.69768 6.56799 8.86255 6.56799 8.99851 6.64286L10.2777 7.34191C10.4431 7.42514 10.6415 7.40603 10.788 7.29279C10.9345 7.17955 11.0029 6.99226 10.964 6.81125L10.7232 5.35152C10.6956 5.18885 10.7472 5.02279 10.8621 4.9044L11.8774 3.87528C12.0094 3.74238 12.0575 3.54768 12.0028 3.36857C11.9481 3.18946 11.7994 3.05491 11.6157 3.01837L10.2003 2.80429C10.0437 2.77921 9.90974 2.67788 9.84299 2.53396L9.20476 1.18857C9.13037 1.02051 8.96388 0.912109 8.78009 0.912109C8.59629 0.912109 8.4298 1.02048 8.35542 1.18857L7.71719 2.53396C7.65043 2.67788 7.51649 2.77918 7.35982 2.80429L5.94443 3.01813C5.76076 3.05466 5.61203 3.18921 5.55733 3.36832C5.50264 3.54743 5.55084 3.74213 5.68276 3.87503L6.69863 4.9044C6.81355 5.02279 6.86515 5.18885 6.83756 5.35152L6.59619 6.8118Z" fill="#1642C5"/>
<path d="M2.60306 6.15188C2.66051 6.21098 2.68629 6.2939 2.67254 6.37517L2.55198 7.10503C2.53266 7.19551 2.56695 7.28907 2.6402 7.34562C2.71342 7.40218 2.81261 7.41174 2.89529 7.37021L3.53594 7.02097C3.60395 6.98364 3.68632 6.98364 3.75437 7.02097L4.39394 7.37049C4.47662 7.41204 4.57581 7.40249 4.64903 7.34593C4.72224 7.28937 4.75654 7.19582 4.73725 7.10533L4.61669 6.37548C4.60291 6.29424 4.62872 6.21128 4.68617 6.15218L5.19383 5.63858C5.25988 5.57216 5.28404 5.47479 5.2567 5.38518C5.22935 5.29558 5.15491 5.22831 5.06301 5.21012L4.3553 5.10199C4.27697 5.08947 4.20999 5.03882 4.17662 4.96682L3.85762 4.29479C3.82051 4.21057 3.73716 4.15625 3.64517 4.15625C3.55315 4.15625 3.46982 4.21057 3.43271 4.29479L3.11264 4.96655C3.07927 5.03851 3.0123 5.08919 2.93396 5.10171L2.22625 5.20984C2.13435 5.22803 2.05991 5.29531 2.03256 5.38491C2.00522 5.47451 2.02935 5.57189 2.09543 5.63831L2.60306 6.15188Z" fill="#1642C5"/>
<path d="M13.7036 4.29555L13.3846 4.96811C13.3512 5.04007 13.2843 5.09075 13.2059 5.10328L12.4982 5.2114C12.4063 5.22959 12.3319 5.29687 12.3045 5.38647C12.2772 5.47607 12.3013 5.57345 12.3674 5.63987L12.8751 6.15347C12.9325 6.21257 12.9583 6.29549 12.9445 6.37677L12.824 7.10662C12.8047 7.19711 12.839 7.29066 12.9122 7.34722C12.9854 7.40378 13.0846 7.41333 13.1673 7.37181L13.8079 7.02256C13.876 6.98523 13.9583 6.98523 14.0264 7.02256L14.6659 7.37208C14.7486 7.41364 14.8478 7.40408 14.921 7.34752C14.9942 7.29096 15.0285 7.19741 15.0093 7.10692L14.8887 6.37707C14.8749 6.29583 14.9007 6.21288 14.9582 6.15377L15.4658 5.64018C15.5319 5.57376 15.556 5.47638 15.5287 5.38678C15.5014 5.29718 15.4269 5.2299 15.335 5.21171L14.6273 5.10358C14.549 5.09106 14.482 5.04041 14.4486 4.96842L14.1296 4.29641C14.093 4.21149 14.0094 4.1564 13.9169 4.15625C13.8244 4.15604 13.7406 4.21079 13.7036 4.29555Z" fill="#1642C5"/>
<path d="M6.88811 1.72401C6.98206 1.72453 7.06952 1.67624 7.11913 1.59647C7.16874 1.5167 7.17339 1.4169 7.13141 1.33287L6.86107 0.792238C6.79435 0.658632 6.63193 0.6044 6.49829 0.671126C6.36469 0.737852 6.31046 0.900273 6.37718 1.03391L6.64751 1.57455C6.69311 1.66577 6.78614 1.72355 6.88811 1.72401Z" fill="#1642C5"/>
<path d="M5.9975 2.18547C6.10303 2.07992 6.10303 1.9088 5.9975 1.80325L5.72717 1.53291C5.6211 1.43048 5.45249 1.43192 5.34822 1.53622C5.24395 1.64049 5.24248 1.80909 5.34491 1.91517L5.61525 2.1855C5.72083 2.291 5.89195 2.291 5.9975 2.18547Z" fill="#1642C5"/>
<path d="M10.6722 1.7233C10.7751 1.72385 10.8695 1.66592 10.9155 1.5738L11.1858 1.03317C11.2525 0.898796 11.1977 0.735793 11.0634 0.669036C10.929 0.60231 10.766 0.657124 10.6992 0.791495L10.4289 1.33213C10.3869 1.41616 10.3915 1.51596 10.4412 1.59573C10.4908 1.67553 10.5782 1.72382 10.6722 1.7233Z" fill="#1642C5"/>
<path d="M11.9448 2.18434L12.2151 1.91401C12.2854 1.84615 12.3136 1.74561 12.2888 1.65111C12.2641 1.55661 12.1903 1.48278 12.0957 1.45804C12.0012 1.4333 11.9007 1.46147 11.8328 1.53175L11.5625 1.80208C11.4922 1.86994 11.4641 1.97047 11.4888 2.06497C11.5135 2.15947 11.5873 2.2333 11.6819 2.25805C11.7764 2.28279 11.8769 2.25462 11.9448 2.18434Z" fill="#1642C5"/>
</g>
<defs>
<clipPath id="clip0_3007_33979">
<rect width="15.68" height="15.68" fill="white" transform="translate(0.939941 0.640625)"/>
</clipPath>
</defs>
</svg>
