<svg width="11" height="11" viewBox="0 0 11 11" fill="none" xmlns="http://www.w3.org/2000/svg">
<path d="M5.86064 9.49664C6.32264 9.49664 6.70064 9.11864 6.70064 8.65664H5.02064C5.02064 9.11864 5.39444 9.49664 5.86064 9.49664ZM8.38064 6.97664V4.87664C8.38064 3.58724 7.69184 2.50784 6.49064 2.22224V1.93664C6.49064 1.58804 6.20924 1.30664 5.86064 1.30664C5.51204 1.30664 5.23064 1.58804 5.23064 1.93664V2.22224C4.02524 2.50784 3.34064 3.58304 3.34064 4.87664V6.97664L2.79884 7.51844C2.53424 7.78304 2.71904 8.23664 3.09284 8.23664H8.62424C8.99804 8.23664 9.18704 7.78304 8.92244 7.51844L8.38064 6.97664Z" fill="#8C9CBB"/>
</svg>
