<svg width="16" height="15" viewBox="0 0 16 15" fill="none" xmlns="http://www.w3.org/2000/svg">
<path fill-rule="evenodd" clip-rule="evenodd" d="M8.02307 0.015625C4.00888 0.015625 0.735357 3.28398 0.735352 7.29817C0.735342 11.3124 4.00886 14.5846 8.02307 14.5846C12.0373 14.5846 15.3043 11.3124 15.3043 7.29817C15.3043 3.28398 12.0373 0.015625 8.02307 0.015625ZM8.01272 3.97887C8.10141 3.97782 8.18941 3.99461 8.27148 4.02822C8.35356 4.06184 8.42805 4.1116 8.49052 4.17456C8.553 4.23751 8.60219 4.31238 8.63517 4.39472C8.66816 4.47705 8.68426 4.56517 8.68253 4.65385V6.63741H10.6661C10.8419 6.63741 11.0104 6.70723 11.1347 6.83151C11.259 6.95579 11.3288 7.12435 11.3288 7.30011C11.3288 7.47587 11.259 7.64443 11.1347 7.7687C11.0104 7.89298 10.8419 7.9628 10.6661 7.9628H8.68253V9.94637C8.68253 10.1221 8.61271 10.2907 8.48843 10.415C8.36415 10.5392 8.19559 10.6091 8.01983 10.6091C7.84408 10.6091 7.67552 10.5392 7.55124 10.415C7.42696 10.2907 7.35714 10.1221 7.35714 9.94637V7.9628H5.37358C5.19786 7.97183 5.02575 7.91069 4.89509 7.79284C4.76444 7.67499 4.68594 7.51008 4.67685 7.33436C4.66777 7.15865 4.72884 6.98651 4.84664 6.85582C4.96444 6.72512 5.12933 6.64656 5.30504 6.63741C5.32787 6.63623 5.35075 6.63623 5.37358 6.63741H7.35714V4.65385C7.35543 4.56637 7.37109 4.47942 7.40319 4.39803C7.43529 4.31663 7.48321 4.24241 7.54417 4.17964C7.60513 4.11688 7.67793 4.06682 7.75835 4.03236C7.83877 3.9979 7.92523 3.97972 8.01272 3.97887Z" fill="#D9D9D9"/>
</svg>
