<svg width="14" height="16" viewBox="0 0 14 16" fill="none" xmlns="http://www.w3.org/2000/svg">
<path d="M10.9075 9.15876L9.30142 8.35572C10.4344 7.41893 11.2412 5.71918 11.2412 4.23145C11.2412 2.03608 9.45514 0.25 7.25977 0.25C5.0644 0.25 3.27832 2.03608 3.27832 4.23145C3.27832 5.719 4.08523 7.41899 5.21811 8.35572L3.61205 9.15876C1.95468 9.21622 0.624023 10.5822 0.624023 12.2533V14.9076C0.624023 15.1519 0.822093 15.35 1.06641 15.35H13.4531C13.6974 15.35 13.8955 15.1519 13.8955 14.9076V12.2533C13.8955 10.5822 12.5648 9.21622 10.9075 9.15876ZM10.1527 9.77061L8.87783 11.683L7.90582 11.197L9.18074 9.28461L10.1527 9.77061ZM7.25977 1.13477C8.81707 1.13477 10.1094 2.29039 10.3247 3.78906H9.91406C9.18227 3.78906 8.58691 3.1937 8.58691 2.46191C8.58691 2.2176 8.38884 2.01953 8.14453 2.01953C7.90022 2.01953 7.70215 2.2176 7.70215 2.46191C7.70215 3.1937 7.10679 3.78906 6.375 3.78906H4.19482C4.41014 2.29039 5.70246 1.13477 7.25977 1.13477ZM5.33876 9.28458L6.61368 11.197L5.64168 11.683L4.36676 9.77058L5.33876 9.28458ZM6.81738 14.4652H1.50879V12.2533C1.50879 11.1109 2.37931 10.1681 3.49184 10.0532L5.12214 12.4987C5.24598 12.6844 5.48867 12.7487 5.68807 12.649L6.81738 12.0844V14.4652ZM6.1375 8.88761C6.363 8.60402 6.34259 8.19744 6.08627 7.9387C6.08627 7.9387 6.08624 7.9387 6.08624 7.93867C6.03982 7.89184 5.95379 7.80714 5.89911 7.76626C5.02178 7.11033 4.33615 5.84178 4.19169 4.67383H6.375C7.09776 4.67383 7.74064 4.32541 8.14453 3.78768C8.54843 4.32541 9.1913 4.67088 9.91406 4.67088H10.3279C10.1834 5.83933 9.49737 7.11112 8.61959 7.76691C8.56515 7.80758 8.47944 7.8919 8.4332 7.93852C8.17573 8.19829 8.15718 8.60534 8.38194 8.88776L7.25977 10.571L6.1375 8.88761ZM13.0107 14.4652H7.70215V12.0844L8.83146 12.649C9.03107 12.7488 9.27367 12.6843 9.39739 12.4987L11.0277 10.0533C12.1402 10.1681 13.0107 11.1109 13.0107 12.2533V14.4652Z" fill="#87888D"/>
</svg>
