<svg width="16" height="17" viewBox="0 0 16 17" fill="none" xmlns="http://www.w3.org/2000/svg">
<g clip-path="url(#clip0_2920_64379)">
<path d="M8.25977 4.84351C7.20274 4.84351 6.34277 5.70347 6.34277 6.7605C6.34277 7.81753 7.20274 8.67749 8.25977 8.67749C9.3168 8.67749 10.1768 7.81753 10.1768 6.7605C10.1768 5.70347 9.3168 4.84351 8.25977 4.84351ZM8.25977 7.79272C7.6906 7.79272 7.22754 7.32967 7.22754 6.7605C7.22754 6.19133 7.6906 5.72827 8.25977 5.72827C8.82894 5.72827 9.29199 6.19133 9.29199 6.7605C9.29199 7.32967 8.82894 7.79272 8.25977 7.79272Z" fill="#87888D"/>
<path d="M8.25996 0.97998C5.07259 0.97998 2.47949 3.57308 2.47949 6.76045C2.47949 7.7807 2.74905 8.78376 3.25897 9.66118C3.37788 9.86574 3.51077 10.065 3.65402 10.2537L8.00883 16.08H8.51112L12.8659 10.2537C13.0091 10.065 13.142 9.86571 13.2609 9.66115C13.7709 8.78376 14.0404 7.7807 14.0404 6.76045C14.0404 3.57308 11.4473 0.97998 8.25996 0.97998ZM12.496 9.21659C12.395 9.39033 12.2821 9.55964 12.1603 9.71984L8.25996 14.9381L4.36174 9.72267L4.35962 9.71984C4.23785 9.55967 4.12492 9.39036 4.02394 9.21659C3.59235 8.47403 3.36426 7.62472 3.36426 6.76045C3.36426 4.06094 5.56048 1.86475 8.25996 1.86475C10.9594 1.86475 13.1557 4.06094 13.1557 6.76045C13.1557 7.62472 12.9276 8.47403 12.496 9.21659Z" fill="#87888D"/>
</g>
<defs>
<clipPath id="clip0_2920_64379">
<rect width="15.1" height="15.1" fill="white" transform="translate(0.709961 0.97998)"/>
</clipPath>
</defs>
</svg>
