<svg width="33" height="36" viewBox="0 0 33 36" fill="none" xmlns="http://www.w3.org/2000/svg">
<path d="M1.41069 2.42348C1.03426 2.80786 0.816406 3.40629 0.816406 4.1813V31.825C0.816406 32.6 1.03426 33.1985 1.41069 33.5829L1.5036 33.6672L17.3843 18.1829V17.8172L1.5036 2.33286L1.41069 2.42348Z" fill="white"/>
<path d="M24.5944 23.3469L19.3066 18.1829V17.8172L24.6008 12.6532L24.7193 12.7204L30.9889 16.2C32.7782 17.1875 32.7782 18.8125 30.9889 19.8063L24.7193 23.2797L24.5944 23.3469Z" fill="white"/>
<path d="M23.7574 24.2413L18.3448 18.9616L2.37109 34.5444C2.96538 35.1538 3.9345 35.2272 5.03657 34.6178L23.7574 24.2413Z" fill="white"/>
<path d="M23.7574 11.7589L5.03657 1.38233C3.9345 0.779202 2.96538 0.852637 2.37109 1.46201L18.3448 17.0386L23.7574 11.7589Z" fill="white"/>
</svg>
