<svg width="13" height="12" viewBox="0 0 13 12" fill="none" xmlns="http://www.w3.org/2000/svg">
<g clip-path="url(#clip0_2920_68513)">
<path d="M11.5126 5.23212H7.06325V0.782702C7.06325 0.475761 6.81406 0.226562 6.50701 0.226562C6.20007 0.226562 5.95087 0.475761 5.95087 0.782702V5.23212H1.50145C1.19451 5.23212 0.945312 5.48132 0.945312 5.78826C0.945312 6.09531 1.19451 6.3445 1.50145 6.3445H5.95087V10.7938C5.95087 11.1009 6.20007 11.3501 6.50701 11.3501C6.81406 11.3501 7.06325 11.1009 7.06325 10.7938V6.3445H11.5126C11.8196 6.3445 12.0688 6.09531 12.0688 5.78826C12.0688 5.48132 11.8196 5.23212 11.5126 5.23212Z" fill="black"/>
</g>
<defs>
<clipPath id="clip0_2920_68513">
<rect width="11.1235" height="11.1235" fill="white" transform="translate(0.945312 0.226562)"/>
</clipPath>
</defs>
</svg>
