<svg width="14" height="14" viewBox="0 0 14 14" fill="none" xmlns="http://www.w3.org/2000/svg">
<path d="M7.25714 10.3465C7.12825 10.3467 7.00334 10.3019 6.90409 10.2196L3.5943 7.46146C3.48165 7.36782 3.4108 7.23327 3.39735 7.08741C3.38391 6.94154 3.42895 6.79631 3.52259 6.68365C3.61622 6.571 3.75077 6.50016 3.89663 6.48671C4.0425 6.47326 4.18774 6.51831 4.30039 6.61194L7.25714 9.08326L10.2139 6.7002C10.2703 6.65438 10.3352 6.62016 10.4049 6.59951C10.4746 6.57886 10.5477 6.57219 10.62 6.57988C10.6923 6.58757 10.7623 6.60947 10.8261 6.64432C10.8899 6.67917 10.9462 6.72628 10.9917 6.78295C11.0422 6.83967 11.0805 6.90621 11.1041 6.9784C11.1277 7.0506 11.1361 7.12689 11.1289 7.2025C11.1216 7.27811 11.0988 7.3514 11.0619 7.41779C11.0251 7.48419 10.9748 7.54225 10.9145 7.58833L7.60467 10.2527C7.50257 10.322 7.38021 10.355 7.25714 10.3465Z" fill="#8C9CBB"/>
<path d="M7.25714 7.034C7.12825 7.03425 7.00334 6.98936 6.90409 6.90712L3.5943 4.14896C3.48165 4.05532 3.4108 3.92077 3.39735 3.77491C3.38391 3.62904 3.42895 3.48381 3.52259 3.37115C3.61622 3.2585 3.75077 3.18766 3.89663 3.17421C4.0425 3.16076 4.18774 3.20581 4.30039 3.29944L7.25714 5.77076L10.2139 3.3877C10.2703 3.34188 10.3352 3.30766 10.4049 3.28701C10.4746 3.26636 10.5477 3.25969 10.62 3.26738C10.6923 3.27507 10.7623 3.29697 10.8261 3.33182C10.8899 3.36667 10.9462 3.41378 10.9917 3.47045C11.0422 3.52717 11.0805 3.59371 11.1041 3.6659C11.1277 3.7381 11.1361 3.81439 11.1289 3.89C11.1216 3.96561 11.0988 4.0389 11.0619 4.10529C11.0251 4.17169 10.9748 4.22975 10.9145 4.27583L7.60467 6.94022C7.50257 7.00946 7.38021 7.04247 7.25714 7.034Z" fill="#8C9CBB"/>
</svg>
