<svg width="258" height="58" viewBox="0 0 258 58" fill="none" xmlns="http://www.w3.org/2000/svg">
<g clip-path="url(#clip0_2975_19793)">
<path d="M235.235 2.41024H231.471V0.492188H241.23V2.41024H237.489V12.5616H235.235V2.41024Z" fill="#1F293C"/>
<path d="M243.36 0.492188H246.935L250.434 9.85343L253.957 0.492188H257.533V12.5616H255.261V2.57055L251.426 12.5616H249.473L245.637 2.57055V12.5616H243.366V0.492188H243.36Z" fill="#1F293C"/>
<path fill-rule="evenodd" clip-rule="evenodd" d="M0.615234 0.492188H42.567V9.33813H11.4129V24.11H39.9118V32.4406H11.4129V57.862H0.615234V0.492188ZM50.9751 0.492188H61.7728V48.6725H88.5016V57.862H50.9751V0.492188ZM129.001 0.492188H117.23L93.687 57.862H105.37L109.618 46.7831H136.524L140.861 57.862H152.543L129.001 0.492188ZM123.159 11.3993L133.515 38.1948H112.716L123.159 11.3993ZM158.327 0.492188H169.124V57.862H158.327V0.492188ZM202.644 0.492188H178.217V57.862H189.014V35.2748H198.927L215.212 57.862H227.869L210.167 34.5877C219.549 32.6983 224.859 27.6312 224.859 17.9264C224.859 6.24635 216.982 0.492188 202.644 0.492188ZM213.973 18.0123C213.973 24.2818 209.725 26.9441 200.786 26.9441H189.014V8.9946H200.786C210.167 8.9946 213.973 11.7429 213.973 18.0123Z" fill="url(#paint0_linear_2975_19793)"/>
</g>
<defs>
<linearGradient id="paint0_linear_2975_19793" x1="-26.2315" y1="40.5709" x2="250.791" y2="42.3951" gradientUnits="userSpaceOnUse">
<stop stop-color="#2F3E5B"/>
<stop offset="1" stop-color="#1A2333"/>
</linearGradient>
<clipPath id="clip0_2975_19793">
<rect width="256.915" height="57.3698" fill="white" transform="translate(0.613281 0.490234)"/>
</clipPath>
</defs>
</svg>
