<svg width="32" height="32" viewBox="0 0 32 32" fill="none" xmlns="http://www.w3.org/2000/svg">
<path d="M31 9C30.4477 9 30 8.55225 30 8V2.875C30 2.3925 29.6075 2 29.125 2H24C23.4477 2 23 1.55225 23 1C23 0.44775 23.4477 0 24 0H29.125C30.7102 0 32 1.28975 32 2.875V8C32 8.55225 31.5523 9 31 9Z" fill="#FEFEFE"/>
<path d="M1 9C0.447688 9 0 8.55225 0 8V2.875C0 1.28975 1.28975 0 2.875 0H8C8.55231 0 9 0.44775 9 1C9 1.55225 8.55231 2 8 2H2.875C2.3925 2 2 2.3925 2 2.875V8C2 8.55225 1.55231 9 1 9Z" fill="#FEFEFE"/>
<path d="M8 32H2.875C1.28975 32 0 30.7102 0 29.125V24C0 23.4477 0.447688 23 1 23C1.55231 23 2 23.4477 2 24V29.125C2 29.6075 2.3925 30 2.875 30H8C8.55231 30 9 30.4478 9 31C9 31.5522 8.55231 32 8 32Z" fill="#FEFEFE"/>
<path d="M29.125 32H24C23.4477 32 23 31.5522 23 31C23 30.4478 23.4477 30 24 30H29.125C29.6075 30 30 29.6075 30 29.125V24C30 23.4477 30.4477 23 31 23C31.5523 23 32 23.4477 32 24V29.125C32 30.7102 30.7102 32 29.125 32Z" fill="#FEFEFE"/>
<path d="M12.125 15H6.875C5.28975 15 4 13.7102 4 12.125V6.875C4 5.28975 5.28975 4 6.875 4H12.125C13.7102 4 15 5.28975 15 6.875V12.125C15 13.7102 13.7102 15 12.125 15ZM6.875 6C6.3925 6 6 6.3925 6 6.875V12.125C6 12.6075 6.3925 13 6.875 13H12.125C12.6075 13 13 12.6075 13 12.125V6.875C13 6.3925 12.6075 6 12.125 6H6.875Z" fill="#FEFEFE"/>
<path d="M12.125 28H6.875C5.28975 28 4 26.7102 4 25.125V19.875C4 18.2897 5.28975 17 6.875 17H12.125C13.7102 17 15 18.2897 15 19.875V25.125C15 26.7102 13.7102 28 12.125 28ZM6.875 19C6.3925 19 6 19.3925 6 19.875V25.125C6 25.6075 6.3925 26 6.875 26H12.125C12.6075 26 13 25.6075 13 25.125V19.875C13 19.3925 12.6075 19 12.125 19H6.875Z" fill="#FEFEFE"/>
<path d="M25.125 15H19.875C18.2897 15 17 13.7102 17 12.125V6.875C17 5.28975 18.2897 4 19.875 4H25.125C26.7102 4 28 5.28975 28 6.875V12.125C28 13.7102 26.7102 15 25.125 15ZM19.875 6C19.3925 6 19 6.3925 19 6.875V12.125C19 12.6075 19.3925 13 19.875 13H25.125C25.6075 13 26 12.6075 26 12.125V6.875C26 6.3925 25.6075 6 25.125 6H19.875Z" fill="#FEFEFE"/>
<path d="M26.375 22H24V18.625C24 17.729 23.2711 17 22.375 17H18.625C17.7289 17 17 17.729 17 18.625V22.375C17 23.271 17.7289 24 18.625 24H22V26.375C22 27.271 22.7289 28 23.625 28H26.375C27.2711 28 28 27.271 28 26.375V23.625C28 22.729 27.2711 22 26.375 22ZM19 19H22V22H19V19ZM26 26H24V24H26V26Z" fill="#FEFEFE"/>
<path d="M10 11H9C8.44769 11 8 10.5522 8 10V9C8 8.44775 8.44769 8 9 8H10C10.5523 8 11 8.44775 11 9V10C11 10.5522 10.5523 11 10 11Z" fill="#FEFEFE"/>
<path d="M23 11H22C21.4477 11 21 10.5522 21 10V9C21 8.44775 21.4477 8 22 8H23C23.5523 8 24 8.44775 24 9V10C24 10.5522 23.5523 11 23 11Z" fill="#FEFEFE"/>
<path d="M10 24H9C8.44769 24 8 23.5522 8 23V22C8 21.4477 8.44769 21 9 21H10C10.5523 21 11 21.4477 11 22V23C11 23.5522 10.5523 24 10 24Z" fill="#FEFEFE"/>
</svg>
