<svg width="10" height="10" viewBox="0 0 10 10" fill="none" xmlns="http://www.w3.org/2000/svg">
<path d="M5.83174 5.00008L9.82751 1.00425C10.0575 0.774249 10.0575 0.402495 9.82751 0.172498C9.59751 -0.0574993 9.22576 -0.0574993 8.99577 0.172498L5.00001 4.16833L1.00423 0.172498C0.774235 -0.0574993 0.402488 -0.0574993 0.172495 0.172498C-0.0574983 0.402495 -0.0574983 0.774249 0.172495 1.00425L4.16826 5.00008L0.172495 8.99591C-0.0574983 9.22591 -0.0574983 9.59766 0.172495 9.82766C0.287199 9.94236 0.43778 10 0.588362 10C0.738943 10 0.889525 9.94235 1.00423 9.82766L4.99999 5.83183L8.99575 9.82766C9.11046 9.94236 9.26104 10 9.41162 10C9.5622 10 9.71278 9.94235 9.82749 9.82766C10.0575 9.59766 10.0575 9.22591 9.82749 8.99591L5.83174 5.00008Z" fill="#F24F7D"/>
</svg>
