<svg width="18" height="22" viewBox="0 0 18 22" fill="none" xmlns="http://www.w3.org/2000/svg">
<path d="M9.00007 0.846191C6.04757 0.846191 3.64551 3.24825 3.64551 6.20076C3.64551 9.15327 6.04757 11.5553 9.00007 11.5553C11.9526 11.5553 14.3546 9.15327 14.3546 6.20076C14.3546 3.24825 11.9526 0.846191 9.00007 0.846191Z" fill="#1A1D25"/>
<path d="M15.6626 15.0533C14.1966 13.5648 12.2532 12.7451 10.1904 12.7451H7.81055C5.74773 12.7451 3.8043 13.5648 2.33834 15.0533C0.879555 16.5345 0.0761719 18.4897 0.0761719 20.5588C0.0761719 20.8874 0.342552 21.1538 0.671124 21.1538H17.3298C17.6583 21.1538 17.9247 20.8874 17.9247 20.5588C17.9247 18.4897 17.1213 16.5345 15.6626 15.0533Z" fill="#1A1D25"/>
</svg>
