<svg width="15" height="16" viewBox="0 0 15 16" fill="none" xmlns="http://www.w3.org/2000/svg">
<path d="M12.8983 2.29374H12.7192C13.0607 1.73773 12.9346 0.991271 12.3865 0.584611C11.7959 0.146484 10.9567 0.287513 10.5445 0.903415L9.61418 2.29377H1.62204C0.965111 2.29377 0.430664 2.82821 0.430664 3.48514V11.1021C0.430664 11.759 0.965111 12.2934 1.62204 12.2934H6.24968L5.90003 13.762H5.14537C4.65354 13.762 4.2534 14.1621 4.2534 14.654V14.8402H3.32308C3.1602 14.8402 3.02817 14.9723 3.02817 15.1351C3.02817 15.298 3.1602 15.43 3.32308 15.43H11.1973C11.3602 15.43 11.4922 15.298 11.4922 15.1351C11.4922 14.9723 11.3602 14.8402 11.1973 14.8402H10.267V14.654C10.267 14.1621 9.86686 13.762 9.37503 13.762H8.62037L8.27071 12.2934H12.8984C13.5553 12.2934 14.0897 11.759 14.0897 11.1021V9.42605V3.48511C14.0897 2.82819 13.5553 2.29374 12.8983 2.29374V2.29374ZM8.67271 7.47833C8.21161 7.80112 7.34777 7.36237 6.52283 7.80256C6.32155 6.75694 6.44846 5.77354 7.49615 5.55648C7.63154 5.52826 7.77732 5.51549 7.90142 5.51797C8.25603 5.78106 8.6147 6.04716 8.96831 6.30955C9.12311 6.75983 9.06501 7.20374 8.67271 7.47833ZM8.96993 4.31719L9.80475 4.93657L9.16275 5.71931C8.89844 5.52322 8.67124 5.35464 8.40694 5.15852C8.46182 5.07651 8.91977 4.39213 8.96993 4.31719V4.31719ZM11.0348 1.23145C11.2581 0.897576 11.7137 0.819895 12.035 1.05833C12.3565 1.2968 12.414 1.75528 12.1593 2.06586C11.7074 2.61685 10.6329 3.9269 10.1792 4.48001L9.29829 3.82642L11.0348 1.23145ZM9.67714 14.654V14.8402H4.84323V14.654C4.84323 14.4874 4.97877 14.3519 5.14537 14.3519H9.375C9.5416 14.3519 9.67714 14.4874 9.67714 14.654ZM8.01402 13.762H6.50635L6.856 12.2934H7.66437L8.01402 13.762ZM13.4999 11.1021C13.4999 11.4337 13.2301 11.7036 12.8984 11.7036C12.4302 11.7036 2.14843 11.7036 1.62207 11.7036C1.29037 11.7036 1.02053 11.4337 1.02053 11.1021V9.72096H1.86328C2.02616 9.72096 2.15819 9.5889 2.15819 9.42605C2.15819 9.2632 2.02616 9.13113 1.86328 9.13113H1.02047V3.48511C1.02047 3.15342 1.29031 2.88357 1.62201 2.88357H9.21949C8.93696 3.3058 8.1127 4.53761 7.85161 4.92775C7.27366 4.93297 6.69666 5.13431 6.31893 5.57527C5.80492 6.17528 5.71462 7.11806 6.05053 8.37741C6.10795 8.59276 6.37664 8.66991 6.53923 8.51461C7.3018 7.78596 8.25154 8.58076 9.10205 7.89237C9.62122 7.47211 9.74409 6.80401 9.54832 6.17926C9.81295 5.85662 11.9862 3.20698 12.2515 2.88357H12.8983C13.23 2.88357 13.4998 3.15342 13.4998 3.48511V9.1311H4.22255C4.05967 9.1311 3.92763 9.26317 3.92763 9.42602C3.92763 9.58887 4.05967 9.72093 4.22255 9.72093H13.4999V11.1021Z" fill="#87888D"/>
</svg>
