<svg width="14" height="16" viewBox="0 0 14 16" fill="none" xmlns="http://www.w3.org/2000/svg">
<path d="M11.3783 13.5629L11.2137 11.9488H12.5782V10.0325C12.5782 9.03505 11.8122 8.21358 10.8376 8.12452L10.725 6.44142H5.91856L5.26225 2.32502C5.18164 1.81953 4.90902 1.37568 4.4946 1.07522C4.08016 0.774754 3.57355 0.65372 3.06806 0.734291C2.56257 0.814892 2.11872 1.08751 1.81825 1.50193C1.51779 1.91635 1.39673 2.42299 1.47733 2.92848L2.03744 6.44139H0.915039V7.32615H2.1785L2.91553 11.9488H6.81806V14.9252H5.07362V15.81H9.44728V14.9252H7.70284V11.9488H10.3244L10.5792 14.4477H13.6058V13.5629H11.3783ZM9.8975 7.32615L9.95035 8.11611H6.18555L6.05959 7.32615H9.8975ZM2.35105 2.78916C2.26149 2.22743 2.64562 1.69755 3.20738 1.60801C3.4795 1.5646 3.75221 1.62981 3.97531 1.79154C4.19839 1.95327 4.34517 2.19222 4.38855 2.46434L5.02266 6.44142H2.9334L2.35105 2.78916ZM3.07443 7.32615H5.16368L5.4307 9.00087H10.6619C11.2307 9.00087 11.6935 9.46362 11.6935 10.0325V11.0641H3.67037L3.07443 7.32615Z" fill="#87888D"/>
</svg>
