<svg width="24" height="24" viewBox="0 0 24 24" fill="none" xmlns="http://www.w3.org/2000/svg">
<path d="M22.9461 13.9076L21.9476 13.0857C21.2637 12.5227 21.2649 11.4762 21.9477 10.9143L22.9461 10.0924C23.6565 9.50747 23.8383 8.50444 23.3782 7.70733L21.4067 4.29267C20.9465 3.49561 19.9868 3.15155 19.1251 3.47433L17.9141 3.92803C17.0846 4.23872 16.179 3.7147 16.0336 2.84236L15.821 1.5667C15.6697 0.658922 14.8919 0 13.9716 0H10.0287C9.10828 0 8.33044 0.658922 8.17917 1.56675L7.96655 2.84236C7.82091 3.71625 6.91406 4.2382 6.08611 3.92808L4.87509 3.47433C4.01339 3.15155 3.05376 3.49566 2.5935 4.29267L0.622077 7.70728C0.161905 8.5043 0.343593 9.50737 1.05417 10.0924L2.05256 10.9143C2.73656 11.4773 2.7352 12.5237 2.05256 13.0856L1.05412 13.9075C0.343593 14.4925 0.161858 15.4956 0.62203 16.2926L2.5935 19.7073C3.05372 20.5043 4.01316 20.8484 4.87509 20.5256L6.08606 20.0719C6.9157 19.7611 7.82114 20.2855 7.9665 21.1576L8.17912 22.4332C8.33044 23.3411 9.10828 24 10.0286 24H13.9715C14.8919 24 15.6697 23.3411 15.821 22.4333L16.0335 21.1577C16.1791 20.284 17.0859 19.7617 17.914 20.072L19.1251 20.5257C19.987 20.8485 20.9465 20.5044 21.4067 19.7073L23.3782 16.2926C23.8383 15.4956 23.6565 14.4925 22.9461 13.9076ZM19.7829 18.7698L18.5719 18.3161C16.636 17.5909 14.5233 18.8144 14.1841 20.8494L13.9716 22.125H10.0287L9.81605 20.8494C9.47625 18.8105 7.36045 17.5923 5.42831 18.3161L4.2173 18.7698L2.24587 15.3552L3.24426 14.5333C4.84031 13.2194 4.83698 10.7779 3.24426 9.46673L2.24587 8.64483L4.21734 5.23017L5.42831 5.68388C7.36425 6.40903 9.47691 5.18559 9.81605 3.15061L10.0286 1.875H13.9715L14.1841 3.15061C14.5239 5.18977 16.6398 6.40753 18.5718 5.68388L19.7828 5.23017L21.7547 8.64436C21.7547 8.64436 21.7546 8.6445 21.7542 8.64478L20.7559 9.46669C19.1599 10.7805 19.1631 13.222 20.7558 14.5332L21.7543 15.3551L19.7829 18.7698ZM12.0001 7.37498C9.44986 7.37498 7.37508 9.44977 7.37508 12C7.37508 14.5502 9.44986 16.625 12.0001 16.625C14.5503 16.625 16.6251 14.5502 16.6251 12C16.6251 9.44977 14.5503 7.37498 12.0001 7.37498ZM12.0001 14.75C10.4837 14.75 9.25008 13.5164 9.25008 12C9.25008 10.4836 10.4837 9.24998 12.0001 9.24998C13.5165 9.24998 14.7501 10.4836 14.7501 12C14.7501 13.5164 13.5165 14.75 12.0001 14.75Z" fill="#1B344F"/>
</svg>
