<svg width="16" height="16" viewBox="0 0 16 16" fill="none" xmlns="http://www.w3.org/2000/svg">
<path d="M15.1461 9.2702L14.5179 8.75309C14.0876 8.39886 14.0883 7.74047 14.5179 7.38695L15.1461 6.86983C15.5931 6.5018 15.7074 5.87073 15.4179 5.36921L14.1775 3.22083C13.888 2.71934 13.2842 2.50287 12.742 2.70595L11.9801 2.99141C11.4582 3.18688 10.8884 2.85719 10.797 2.30834L10.6632 1.50574C10.568 0.934591 10.0786 0.52002 9.4996 0.52002H7.01886C6.43978 0.52002 5.95039 0.934591 5.85522 1.50577L5.72144 2.30834C5.62981 2.85816 5.05925 3.18656 4.53833 2.99144L3.7764 2.70595C3.23425 2.50287 2.63048 2.71937 2.3409 3.22083L1.10055 5.36918C0.811021 5.87064 0.925332 6.50174 1.3724 6.86981L2.00056 7.38692C2.43091 7.74118 2.43005 8.39951 2.00056 8.75306L1.37238 9.27017C0.925332 9.63824 0.810991 10.2693 1.10052 10.7708L2.3409 12.9192C2.63045 13.4206 3.2341 13.6371 3.7764 13.4341L4.5383 13.1486C5.06028 12.953 5.62996 13.283 5.72141 13.8317L5.85519 14.6342C5.95039 15.2054 6.43978 15.62 7.01883 15.62H9.49957C10.0786 15.62 10.568 15.2054 10.6632 14.6343L10.7969 13.8317C10.8885 13.2821 11.4591 12.9534 11.9801 13.1487L12.742 13.4341C13.2843 13.6372 13.888 13.4207 14.1775 12.9192L15.4179 10.7708C15.7074 10.2693 15.5931 9.63824 15.1461 9.2702ZM13.1559 12.3294L12.394 12.0439C11.176 11.5876 9.84672 12.3574 9.63334 13.6378L9.4996 14.4403H7.01886L6.88508 13.6378C6.6713 12.3549 5.34011 11.5885 4.12447 12.0439L3.36254 12.3294L2.12218 10.181L2.75034 9.66387C3.75452 8.8372 3.75242 7.30113 2.75034 6.47617L2.12218 5.95906L3.36257 3.81067L4.12447 4.09612C5.3425 4.55237 6.67171 3.78262 6.88508 2.50228L7.01883 1.69971H9.49957L9.63331 2.50228C9.84713 3.78525 11.1784 4.55142 12.3939 4.09612L13.1559 3.81067L14.3965 5.95876C14.3965 5.95876 14.3964 5.95885 14.3962 5.95903L13.7681 6.47614C12.7639 7.30275 12.7659 8.83885 13.768 9.66384L14.3962 10.181L13.1559 12.3294ZM8.25921 5.16011C6.65469 5.16011 5.34931 6.4655 5.34931 8.07002C5.34931 9.67454 6.65469 10.9799 8.25921 10.9799C9.86374 10.9799 11.1691 9.67454 11.1691 8.07002C11.1691 6.4655 9.86374 5.16011 8.25921 5.16011ZM8.25921 9.80024C7.30517 9.80024 6.529 9.02406 6.529 8.07002C6.529 7.11598 7.30517 6.3398 8.25921 6.3398C9.21326 6.3398 9.98943 7.11598 9.98943 8.07002C9.98943 9.02406 9.21326 9.80024 8.25921 9.80024Z" fill="#87888D"/>
</svg>
