<svg width="16" height="16" viewBox="0 0 16 16" fill="none" xmlns="http://www.w3.org/2000/svg">
<g clip-path="url(#clip0_2920_64350)">
<path d="M5.57502 10.392H5.57571C5.57628 10.392 5.57686 10.3918 5.57744 10.3918H13.598C13.7955 10.3918 13.9691 10.2609 14.0234 10.071L15.7929 3.87764C15.831 3.74412 15.8043 3.60058 15.7208 3.48975C15.6371 3.37893 15.5064 3.31372 15.3676 3.31372H4.55477L4.23854 1.89061C4.19349 1.68819 4.01401 1.54419 3.80664 1.54419H1.15234C0.907996 1.54419 0.709961 1.74222 0.709961 1.98657C0.709961 2.23092 0.907996 2.42895 1.15234 2.42895H3.45181C3.5078 2.68114 4.96513 9.23923 5.049 9.61652C4.57885 9.82089 4.24902 10.2897 4.24902 10.8342C4.24902 11.566 4.8444 12.1614 5.57617 12.1614H13.598C13.8424 12.1614 14.0404 11.9633 14.0404 11.719C14.0404 11.4746 13.8424 11.2766 13.598 11.2766H5.57617C5.33228 11.2766 5.13379 11.0781 5.13379 10.8342C5.13379 10.5907 5.33159 10.3925 5.57502 10.392ZM14.7811 4.19848L13.2643 9.50708H5.931L4.75131 4.19848H14.7811Z" fill="#87888D"/>
<path d="M5.13379 13.4885C5.13379 14.2203 5.72916 14.8157 6.46094 14.8157C7.19271 14.8157 7.78808 14.2203 7.78808 13.4885C7.78808 12.7568 7.19271 12.1614 6.46094 12.1614C5.72916 12.1614 5.13379 12.7568 5.13379 13.4885ZM6.46094 13.0461C6.70482 13.0461 6.90332 13.2446 6.90332 13.4885C6.90332 13.7324 6.70482 13.9309 6.46094 13.9309C6.21705 13.9309 6.01855 13.7324 6.01855 13.4885C6.01855 13.2446 6.21705 13.0461 6.46094 13.0461Z" fill="#87888D"/>
<path d="M11.3857 13.4885C11.3857 14.2203 11.9811 14.8157 12.7129 14.8157C13.4447 14.8157 14.04 14.2203 14.04 13.4885C14.04 12.7568 13.4447 12.1614 12.7129 12.1614C11.9811 12.1614 11.3857 12.7568 11.3857 13.4885ZM12.7129 13.0461C12.9568 13.0461 13.1553 13.2446 13.1553 13.4885C13.1553 13.7324 12.9568 13.9309 12.7129 13.9309C12.469 13.9309 12.2705 13.7324 12.2705 13.4885C12.2705 13.2446 12.469 13.0461 12.7129 13.0461Z" fill="#87888D"/>
</g>
<defs>
<clipPath id="clip0_2920_64350">
<rect width="15.1" height="15.1" fill="white" transform="translate(0.709961 0.629883)"/>
</clipPath>
</defs>
</svg>
