<svg width="16" height="16" viewBox="0 0 16 16" fill="none" xmlns="http://www.w3.org/2000/svg">
<g clip-path="url(#clip0_2920_64363)">
<path d="M9.64434 1.85864H8.13434C7.92571 1.85864 7.75684 2.02751 7.75684 2.23614C7.75684 2.44477 7.92571 2.61364 8.13434 2.61364H9.64434C9.85296 2.61364 10.0218 2.44477 10.0218 2.23614C10.0218 2.02751 9.85296 1.85864 9.64434 1.85864Z" fill="#87888D"/>
<path d="M11.2795 0.600098H5.23949C4.40699 0.600098 3.72949 1.27759 3.72949 2.1101V14.1901C3.72949 15.0226 4.40699 15.7001 5.23949 15.7001H11.2795C12.112 15.7001 12.7895 15.0226 12.7895 14.1901V2.1101C12.7895 1.27759 12.112 0.600098 11.2795 0.600098ZM12.0345 14.1901C12.0345 14.6071 11.6965 14.9451 11.2795 14.9451H5.23949C4.82247 14.9451 4.48449 14.6071 4.48449 14.1901V2.1101C4.48449 1.69308 4.82247 1.3551 5.23949 1.3551H11.2795C11.6965 1.3551 12.0345 1.69308 12.0345 2.1101V14.1901Z" fill="#87888D"/>
<path d="M8.25988 14.4414C8.67686 14.4414 9.01488 14.1034 9.01488 13.6864C9.01488 13.2694 8.67686 12.9314 8.25988 12.9314C7.84291 12.9314 7.50488 13.2694 7.50488 13.6864C7.50488 14.1034 7.84291 14.4414 8.25988 14.4414Z" fill="#87888D"/>
<path d="M6.87555 2.61364C7.08403 2.61364 7.25305 2.44463 7.25305 2.23614C7.25305 2.02766 7.08403 1.85864 6.87555 1.85864C6.66706 1.85864 6.49805 2.02766 6.49805 2.23614C6.49805 2.44463 6.66706 2.61364 6.87555 2.61364Z" fill="#87888D"/>
</g>
<defs>
<clipPath id="clip0_2920_64363">
<rect width="15.1" height="15.1" fill="white" transform="translate(0.709961 0.600098)"/>
</clipPath>
</defs>
</svg>
