<svg width="14" height="16" viewBox="0 0 14 16" fill="none" xmlns="http://www.w3.org/2000/svg">
<path d="M12.8926 6.1248L7.88894 1.12113C7.37168 0.603842 6.52992 0.603813 6.01259 1.12113C5.54756 1.58614 5.50751 2.29533 5.85092 2.80174L5.84396 2.83657C5.48321 4.64046 4.60496 6.28152 3.3041 7.58236L1.00905 9.87741C0.490518 10.396 0.490429 11.2352 1.00905 11.7538L2.25993 13.0046C2.77843 13.5232 3.61772 13.5232 4.13628 13.0046L4.44901 12.6919L6.63809 14.881C7.15662 15.3995 7.99585 15.3996 8.51441 14.881C9.03173 14.3637 9.03173 13.522 8.51441 13.0047L7.57624 12.0665L7.88897 11.7538C8.4075 11.2353 8.40756 10.396 7.88897 9.87744L7.67645 9.66489C8.72192 8.93292 9.90924 8.42333 11.1772 8.16972L11.2125 8.16268C11.7301 8.51219 12.4377 8.456 12.8926 8.00109H12.8926C13.4099 7.48383 13.4099 6.64212 12.8926 6.1248ZM3.51084 12.3792C3.33801 12.552 3.05819 12.552 2.88537 12.3792L1.63449 11.1283C1.46163 10.9554 1.46163 10.6757 1.63449 10.5028L3.82354 8.31376L5.69989 10.1901C5.48572 10.4043 3.73029 12.1597 3.51084 12.3792ZM7.88894 13.6301C8.06135 13.8025 8.06135 14.0831 7.88894 14.2555C7.71653 14.4279 7.43591 14.4279 7.2635 14.2555L5.07442 12.0664L5.69989 11.441L7.88894 13.6301ZM6.32533 10.8156C6.45828 10.6826 6.65729 10.479 6.97138 10.2107L7.2635 10.5028C7.43636 10.6757 7.43636 10.9554 7.2635 11.1283L6.95077 11.441L6.32533 10.8156ZM6.34412 9.58349L4.43014 7.66951C5.45584 6.48513 6.19037 5.08706 6.58336 3.56821L10.4454 7.43027C8.92657 7.82322 7.52852 8.55775 6.34412 9.58349ZM12.2671 7.37562C12.0942 7.54844 11.8145 7.54844 11.6416 7.37562L6.63803 2.37201C6.46518 2.19913 6.46518 1.91943 6.63803 1.74657C6.81089 1.57372 7.09065 1.57372 7.2635 1.74657L12.2671 6.75015C12.4395 6.92259 12.4395 7.20315 12.2671 7.37562Z" fill="#87888D"/>
</svg>
