<svg width="16" height="16" viewBox="0 0 16 16" fill="none" xmlns="http://www.w3.org/2000/svg">
<g clip-path="url(#clip0_2926_41833)">
<path d="M8 0C3.57841 0 0 3.578 0 8C0 12.4215 3.578 16 8 16C12.4216 16 16 12.422 16 8C16 3.57847 12.422 0 8 0ZM8 14.8837C4.20431 14.8837 1.11628 11.7957 1.11628 8C1.11628 4.20428 4.20431 1.11628 8 1.11628C11.7957 1.11628 14.8837 4.20428 14.8837 8C14.8837 11.7957 11.7957 14.8837 8 14.8837Z" fill="#87888D"/>
<path d="M8.0003 6.6687C7.52642 6.6687 7.18945 6.86883 7.18945 7.16367V11.1757C7.18945 11.4285 7.52642 11.6812 8.0003 11.6812C8.45311 11.6812 8.82164 11.4285 8.82164 11.1757V7.16361C8.82164 6.86879 8.45311 6.6687 8.0003 6.6687Z" fill="#87888D"/>
<path d="M8.00019 4.19409C7.51578 4.19409 7.13672 4.54159 7.13672 4.94175C7.13672 5.34194 7.51581 5.69997 8.00019 5.69997C8.47406 5.69997 8.85319 5.34194 8.85319 4.94175C8.85319 4.54159 8.47403 4.19409 8.00019 4.19409Z" fill="#87888D"/>
</g>
<defs>
<clipPath id="clip0_2926_41833">
<rect width="16" height="16" fill="white"/>
</clipPath>
</defs>
</svg>
