<svg width="20" height="19" viewBox="0 0 20 19" fill="none" xmlns="http://www.w3.org/2000/svg">
<path d="M19.9812 6.22375L18.7312 1.22375C18.6625 0.945 18.4112 0.75 18.125 0.75H1.875C1.58875 0.75 1.3375 0.945 1.26875 1.22375L0.01875 6.22375C0.00625 6.2725 0 6.32375 0 6.375C0 7.4225 0.49625 8.34625 1.25 8.91375V17.625C1.25 17.97 1.53 18.25 1.875 18.25H8.125C8.47 18.25 8.75 17.97 8.75 17.625V13.25H11.25V17.625C11.25 17.97 11.53 18.25 11.875 18.25H18.125C18.47 18.25 18.75 17.97 18.75 17.625V8.91375C19.5037 8.34625 20 7.4225 20 6.375C20 6.32375 19.9937 6.2725 19.9812 6.22375ZM17.5 17H12.5V12.625C12.5 12.28 12.22 12 11.875 12H8.125C7.78 12 7.5 12.28 7.5 12.625V17H2.5V9.45C2.65375 9.47625 2.80875 9.5 2.96875 9.5C3.92125 9.5 4.76875 9.02625 5.3125 8.29125C5.85625 9.02625 6.70375 9.5 7.65625 9.5C8.60875 9.5 9.45625 9.02625 10 8.29125C10.5437 9.02625 11.3912 9.5 12.3438 9.5C13.2963 9.5 14.1438 9.02625 14.6875 8.29125C15.2312 9.02625 16.0788 9.5 17.0312 9.5C17.1912 9.5 17.3463 9.47625 17.5 9.45V17ZM17.0312 8.25C16.0837 8.25 15.3125 7.40875 15.3125 6.375C15.3125 6.03 15.0325 5.75 14.6875 5.75C14.3425 5.75 14.0625 6.03 14.0625 6.375C14.0625 7.40875 13.2913 8.25 12.3438 8.25C11.3962 8.25 10.625 7.40875 10.625 6.375C10.625 6.03 10.345 5.75 10 5.75C9.655 5.75 9.375 6.03 9.375 6.375C9.375 7.40875 8.60375 8.25 7.65625 8.25C6.70875 8.25 5.9375 7.40875 5.9375 6.375C5.9375 6.03 5.6575 5.75 5.3125 5.75C4.9675 5.75 4.6875 6.03 4.6875 6.375C4.6875 7.40875 3.91625 8.25 2.96875 8.25C2.04375 8.25 1.28625 7.4475 1.25125 6.4475L2.36375 2H17.6375L18.75 6.4475C18.7138 7.4475 17.9562 8.25 17.0312 8.25Z" fill="#1B344F"/>
</svg>
