<svg width="12" height="9" viewBox="0 0 12 9" fill="none" xmlns="http://www.w3.org/2000/svg">
<path d="M11.1608 2.15975L5.22077 8.09975C5.03451 8.2845 4.78311 8.38865 4.52077 8.38975C4.38916 8.39051 4.2587 8.36529 4.13686 8.31553C4.01503 8.26576 3.90421 8.19244 3.81077 8.09975L0.81077 5.09975C0.646943 4.90845 0.561337 4.66238 0.571058 4.4107C0.580779 4.15902 0.685112 3.92028 0.863206 3.74219C1.0413 3.5641 1.28004 3.45976 1.53172 3.45004C1.78339 3.44032 2.02947 3.52593 2.22077 3.68975L4.52077 5.99975L9.75077 0.769754C9.94207 0.605928 10.1881 0.520321 10.4398 0.530043C10.6915 0.539764 10.9302 0.644096 11.1083 0.82219C11.2864 1.00028 11.3908 1.23902 11.4005 1.4907C11.4102 1.74238 11.3246 1.98845 11.1608 2.17975V2.15975Z" fill="#1B344F"/>
</svg>
