<svg width="16" height="16" viewBox="0 0 16 16" fill="none" xmlns="http://www.w3.org/2000/svg">
<g clip-path="url(#clip0_2920_64310)">
<path d="M6.10302 8.25999C6.63641 8.25999 7.15782 8.10181 7.60131 7.80547C8.0448 7.50912 8.39045 7.08792 8.59455 6.59512C8.79865 6.10232 8.85202 5.56007 8.74793 5.03694C8.64384 4.5138 8.38695 4.03328 8.00975 3.65615C7.63255 3.27902 7.15199 3.02222 6.62884 2.91822C6.10569 2.81421 5.56344 2.86769 5.07068 3.07187C4.57792 3.27605 4.15678 3.62178 3.86051 4.06532C3.56424 4.50887 3.40616 5.0303 3.40625 5.56369C3.407 6.27865 3.69138 6.9641 4.19697 7.4696C4.70256 7.9751 5.38806 8.25936 6.10302 8.25999ZM6.10302 3.81068C6.44973 3.81068 6.78866 3.91349 7.07694 4.10611C7.36522 4.29874 7.58991 4.57252 7.72259 4.89284C7.85527 5.21317 7.88999 5.56564 7.82235 5.90569C7.75471 6.24574 7.58775 6.5581 7.34259 6.80326C7.09742 7.04843 6.78506 7.21538 6.44501 7.28303C6.10496 7.35067 5.75249 7.31595 5.43217 7.18327C5.11184 7.05059 4.83806 6.8259 4.64544 6.53762C4.45281 6.24934 4.35 5.91041 4.35 5.56369C4.35037 5.09888 4.53519 4.65321 4.86386 4.32454C5.19253 3.99587 5.6382 3.81105 6.10302 3.81068Z" fill="#87888D"/>
<path d="M11.7984 8.4958C12.1951 8.4958 12.5828 8.37818 12.9126 8.15782C13.2424 7.93746 13.4995 7.62424 13.6512 7.25779C13.803 6.89134 13.8428 6.48811 13.7654 6.09909C13.688 5.71006 13.497 5.35272 13.2165 5.07225C12.936 4.79178 12.5787 4.60078 12.1897 4.5234C11.8007 4.44602 11.3974 4.48573 11.031 4.63752C10.6645 4.78931 10.3513 5.04636 10.131 5.37615C9.91059 5.70595 9.79297 6.09369 9.79297 6.49033C9.79359 7.02202 10.0051 7.53176 10.381 7.90772C10.757 8.28369 11.2667 8.49518 11.7984 8.4958ZM11.7984 5.42861C12.0084 5.42861 12.2137 5.49088 12.3883 5.60755C12.5629 5.72421 12.699 5.89003 12.7793 6.08403C12.8597 6.27803 12.8807 6.49151 12.8398 6.69746C12.7988 6.90342 12.6977 7.0926 12.5492 7.24108C12.4007 7.38957 12.2115 7.49068 12.0056 7.53165C11.7996 7.57262 11.5861 7.55159 11.3921 7.47123C11.1981 7.39087 11.0323 7.25479 10.9157 7.08019C10.799 6.90559 10.7367 6.70032 10.7367 6.49033C10.737 6.20882 10.8489 5.93892 11.048 5.73986C11.247 5.5408 11.5169 5.42886 11.7984 5.42861Z" fill="#87888D"/>
<path d="M11.7988 9.04782C11.3227 9.04926 10.8517 9.14651 10.4139 9.33378C9.97618 9.52104 9.58058 9.7945 9.2507 10.1378C8.53166 9.54023 7.6573 9.15974 6.72992 9.0409C5.80253 8.92207 4.86048 9.0698 4.01399 9.46681C3.1675 9.86382 2.45157 10.4937 1.94998 11.2827C1.44839 12.0718 1.18189 12.9873 1.18164 13.9223C1.18164 14.0474 1.23136 14.1675 1.31985 14.256C1.40834 14.3444 1.52837 14.3942 1.65352 14.3942H10.5531C10.6782 14.3942 10.7983 14.3444 10.8867 14.256C10.9752 14.1675 11.025 14.0474 11.025 13.9223C11.0242 13.6327 10.9978 13.3437 10.9462 13.0588H14.866C14.9912 13.0588 15.1112 13.009 15.1997 12.9205C15.2882 12.8321 15.3379 12.712 15.3379 12.5869C15.3369 11.6486 14.9637 10.749 14.3002 10.0855C13.6367 9.422 12.7371 9.04882 11.7988 9.04782ZM2.15323 13.4504C2.25944 12.5458 2.67308 11.7051 3.32496 11.069C3.97683 10.4328 4.82739 10.0399 5.73432 9.95582C6.64126 9.87176 7.54955 10.1017 8.30724 10.6072C9.06492 11.1127 9.62604 11.863 9.8967 12.7327C9.9721 12.9662 10.0244 13.2066 10.0529 13.4504H2.15323ZM10.6715 12.115C10.4869 11.6439 10.2304 11.2043 9.91133 10.8117C10.2393 10.4616 10.658 10.2094 11.1209 10.0832C11.5837 9.95693 12.0725 9.96163 12.5328 10.0967C12.9931 10.2318 13.4069 10.492 13.7281 10.8484C14.0494 11.2047 14.2654 11.6432 14.3521 12.115H10.6715Z" fill="#87888D"/>
</g>
<defs>
<clipPath id="clip0_2920_64310">
<rect width="15.1" height="15.1" fill="white" transform="translate(0.709961 0.709961)"/>
</clipPath>
</defs>
</svg>
