<svg width="14" height="14" viewBox="0 0 14 14" fill="none" xmlns="http://www.w3.org/2000/svg">
<g clip-path="url(#clip0_1683_220067)">
<path d="M11.1768 4.06261C11.0342 3.2154 10.6147 2.44221 9.97315 1.85547C9.26028 1.20292 8.33356 0.84375 7.36844 0.84375C6.62268 0.84375 5.8961 1.05761 5.27372 1.46065C4.75552 1.79515 4.32506 2.24755 4.02072 2.77945C3.88911 2.75478 3.75202 2.74107 3.61493 2.74107C2.44967 2.74107 1.50101 3.68973 1.50101 4.85499C1.50101 5.00579 1.51746 5.1511 1.54488 5.29368C0.790887 5.84204 0.333008 6.72489 0.333008 7.66533C0.333008 8.4248 0.615412 9.16235 1.13087 9.74635C1.66003 10.3441 2.35919 10.6977 3.10496 10.7389C3.11318 10.7389 3.11867 10.7389 3.12689 10.7389H5.48483C5.69047 10.7389 5.85498 10.5744 5.85498 10.3687C5.85498 10.1631 5.69047 9.99859 5.48483 9.99859H3.13786C2.01647 9.93005 1.07329 8.86349 1.07329 7.66259C1.07329 6.88666 1.49004 6.16283 2.16178 5.77075C2.31806 5.68027 2.38387 5.49109 2.32355 5.3211C2.26871 5.17304 2.24129 5.01676 2.24129 4.84951C2.24129 4.09277 2.8582 3.47587 3.61493 3.47587C3.7767 3.47587 3.93572 3.50329 4.08378 3.55812C4.26474 3.62393 4.46489 3.54167 4.54714 3.36894C5.05986 2.28045 6.16754 1.57855 7.37119 1.57855C8.98884 1.57855 10.3241 2.79042 10.4776 4.39711C10.4941 4.56436 10.6202 4.69871 10.7847 4.72613C12.0048 4.9345 12.9261 6.06138 12.9261 7.34728C12.9261 8.70995 11.854 9.8944 10.5325 9.99585H8.51177C8.30614 9.99585 8.14163 10.1604 8.14163 10.366C8.14163 10.5716 8.30614 10.7361 8.51177 10.7361H10.5462C10.5544 10.7361 10.5626 10.7361 10.5736 10.7361C11.4098 10.6758 12.1913 10.292 12.7725 9.65038C13.351 9.01429 13.6663 8.19724 13.6663 7.34728C13.6636 5.80913 12.6135 4.44098 11.1768 4.06261Z" fill="#1642C5"/>
<path d="M9.22256 8.0117C9.36788 7.86639 9.36788 7.63334 9.22256 7.48802L7.26218 5.52764C7.19364 5.4591 7.09768 5.41797 7.00171 5.41797C6.90575 5.41797 6.80979 5.45635 6.74124 5.52764L4.78086 7.48802C4.63555 7.63334 4.63555 7.86639 4.78086 8.0117C4.85215 8.08299 4.94811 8.12138 5.04133 8.12138C5.13455 8.12138 5.23052 8.08573 5.3018 8.0117L6.63157 6.68193V12.7934C6.63157 12.999 6.79608 13.1635 7.00171 13.1635C7.20735 13.1635 7.37185 12.999 7.37185 12.7934V6.68193L8.70162 8.0117C8.8442 8.15702 9.07725 8.15702 9.22256 8.0117Z" fill="#1642C5"/>
</g>
<defs>
<clipPath id="clip0_1683_220067">
<rect width="13.3333" height="13.3333" fill="white" transform="translate(0.333008 0.332031)"/>
</clipPath>
</defs>
</svg>
