<svg width="7" height="10" viewBox="0 0 7 10" fill="none" xmlns="http://www.w3.org/2000/svg">
<path d="M3.7166 9.06028C4.17889 9.06028 4.55712 8.68204 4.55712 8.21976H2.87609C2.87609 8.68204 3.25012 9.06028 3.7166 9.06028ZM6.23815 6.53873V4.43743C6.23815 3.14724 5.54893 2.06717 4.34699 1.7814V1.49562C4.34699 1.14681 4.06542 0.865234 3.7166 0.865234C3.36779 0.865234 3.08622 1.14681 3.08622 1.49562V1.7814C1.88007 2.06717 1.19505 3.14304 1.19505 4.43743V6.53873L0.652917 7.08086C0.388154 7.34562 0.573068 7.7995 0.947098 7.7995H6.4819C6.85594 7.7995 7.04505 7.34562 6.78029 7.08086L6.23815 6.53873Z" fill="#87888D"/>
</svg>
