<svg width="244" height="183" viewBox="0 0 244 183" fill="none" xmlns="http://www.w3.org/2000/svg">
<circle opacity="0.2" cx="118.136" cy="108.5" r="68.5" fill="#5EAC20"/>
<circle opacity="0.4" cx="118.136" cy="108.501" r="50.122" fill="#5EAC20"/>
<path opacity="0.99" d="M112.249 121.039C111.856 121.039 111.467 120.96 111.104 120.806C110.74 120.652 110.411 120.426 110.133 120.142L101.714 111.527C101.159 110.951 100.848 110.174 100.851 109.365C100.853 108.556 101.168 107.781 101.727 107.209C102.286 106.637 103.044 106.315 103.834 106.312C104.625 106.31 105.384 106.627 105.947 107.196L112.249 113.645L128.655 96.858C129.217 96.2896 129.976 95.9721 130.767 95.9746C131.558 95.9772 132.315 96.2997 132.874 96.8717C133.433 97.4437 133.748 98.2188 133.751 99.0277C133.753 99.8366 133.443 100.614 132.887 101.189L114.366 120.142C114.088 120.427 113.758 120.652 113.395 120.806C113.032 120.96 112.642 121.039 112.249 121.039Z" fill="white"/>
<path d="M117.3 77.8711C111.38 77.8711 105.592 79.6675 100.67 83.0332C95.7471 86.3989 91.9104 91.1826 89.6448 96.7796C87.3792 102.376 86.7864 108.535 87.9414 114.477C89.0964 120.418 91.9473 125.876 96.1337 130.16C100.32 134.444 105.654 137.361 111.46 138.543C117.267 139.725 123.286 139.118 128.755 136.8C134.225 134.481 138.9 130.555 142.189 125.518C145.479 120.481 147.234 114.559 147.234 108.501C147.225 100.38 144.068 92.5949 138.457 86.8527C132.845 81.1105 125.236 77.8804 117.3 77.8711ZM132.887 101.191L114.365 120.143C114.087 120.427 113.757 120.653 113.394 120.807C113.031 120.961 112.642 121.04 112.249 121.04C111.856 121.04 111.466 120.961 111.103 120.807C110.74 120.653 110.41 120.427 110.132 120.143L101.714 111.528C101.158 110.953 100.848 110.176 100.85 109.367C100.853 108.558 101.168 107.783 101.727 107.211C102.286 106.639 103.043 106.316 103.834 106.314C104.624 106.311 105.384 106.629 105.946 107.197L112.249 113.646L128.654 96.8594C129.217 96.291 129.976 95.9734 130.767 95.976C131.557 95.9785 132.315 96.301 132.874 96.873C133.433 97.445 133.748 98.2201 133.75 99.0291C133.753 99.838 133.442 100.615 132.887 101.191Z" fill="#5EAC20"/>
<path d="M54.2333 13.6466L60.4443 7.43555" stroke="#B5B5B5" stroke-width="1.5" stroke-linecap="round"/>
<path d="M54.2333 7.43541L60.4443 13.6465" stroke="#B5B5B5" stroke-width="1.5" stroke-linecap="round"/>
<path d="M195.071 174.647L201.282 168.436" stroke="#B5B5B5" stroke-width="1.5" stroke-linecap="round"/>
<path d="M195.071 168.435L201.282 174.646" stroke="#B5B5B5" stroke-width="1.5" stroke-linecap="round"/>
<path d="M7.47305 162.117C6.31487 162.117 5.1827 162.461 4.21971 163.104C3.25672 163.748 2.50616 164.662 2.06294 165.732C1.61972 166.802 1.50376 167.98 1.72971 169.115C1.95566 170.251 2.51337 171.295 3.33233 172.114C4.15129 172.933 5.1947 173.49 6.33063 173.716C7.46655 173.942 8.64397 173.826 9.71399 173.383C10.784 172.94 11.6986 172.189 12.342 171.226C12.9855 170.263 13.3289 169.131 13.3289 167.973C13.3289 167.204 13.1774 166.443 12.8832 165.732C12.5889 165.022 12.1575 164.376 11.6138 163.832C11.07 163.289 10.4245 162.857 9.71399 162.563C9.00352 162.269 8.24205 162.117 7.47305 162.117ZM7.47305 172.658C6.5465 172.658 5.64077 172.383 4.87037 171.868C4.09998 171.353 3.49953 170.622 3.14496 169.766C2.79039 168.91 2.69762 167.968 2.87838 167.059C3.05914 166.15 3.50531 165.316 4.16047 164.66C4.81564 164.005 5.65037 163.559 6.55911 163.378C7.46785 163.198 8.40978 163.29 9.2658 163.645C10.1218 164 10.8535 164.6 11.3682 165.37C11.883 166.141 12.1577 167.047 12.1577 167.973C12.1577 169.215 11.6642 170.407 10.7856 171.286C9.90707 172.164 8.7155 172.658 7.47305 172.658Z" fill="#B5B5B5"/>
<path d="M236.528 97.793C235.37 97.793 234.237 98.1364 233.274 98.7799C232.311 99.4233 231.561 100.338 231.118 101.408C230.674 102.478 230.558 103.655 230.784 104.791C231.01 105.927 231.568 106.971 232.387 107.79C233.206 108.608 234.249 109.166 235.385 109.392C236.521 109.618 237.699 109.502 238.769 109.059C239.839 108.616 240.753 107.865 241.397 106.902C242.04 105.939 242.384 104.807 242.384 103.649C242.384 102.88 242.232 102.118 241.938 101.408C241.644 100.697 241.212 100.052 240.668 99.5081C240.125 98.9643 239.479 98.533 238.769 98.2387C238.058 97.9444 237.297 97.793 236.528 97.793ZM236.528 108.334C235.601 108.334 234.695 108.059 233.925 107.544C233.155 107.029 232.554 106.298 232.2 105.442C231.845 104.586 231.752 103.644 231.933 102.735C232.114 101.826 232.56 100.991 233.215 100.336C233.87 99.6811 234.705 99.2349 235.614 99.0542C236.523 98.8734 237.464 98.9662 238.32 99.3207C239.177 99.6753 239.908 100.276 240.423 101.046C240.938 101.817 241.212 102.722 241.212 103.649C241.212 104.891 240.719 106.083 239.84 106.961C238.962 107.84 237.77 108.334 236.528 108.334Z" fill="#B5B5B5"/>
<circle cx="9.02763" cy="85.2024" r="4.39189" fill="#5EAC20"/>
<circle cx="235.243" cy="28.9856" r="4.39189" fill="#5EAC20"/>
</svg>
