<svg width="14" height="13" viewBox="0 0 14 13" fill="none" xmlns="http://www.w3.org/2000/svg">
<path d="M12.9221 3.14673H11.9783V1.7311C11.9783 1.21063 11.555 0.787354 11.0346 0.787354H2.30488C1.39416 0.787354 0.65332 1.5282 0.65332 2.43892V10.9327C0.65332 11.8434 1.39416 12.5842 2.30488 12.5842H12.9221C13.4425 12.5842 13.8658 12.161 13.8658 11.6405C13.8658 8.7795 13.8658 6.62539 13.8658 4.09048C13.8658 3.57 13.4425 3.14673 12.9221 3.14673ZM2.30488 1.7311H11.0346V3.14673H2.30488C1.91464 3.14673 1.59707 2.82916 1.59707 2.43892C1.59707 2.04868 1.91464 1.7311 2.30488 1.7311ZM12.9221 8.80923H11.0346C10.5141 8.80923 10.0908 8.38596 10.0908 7.86548C10.0908 7.345 10.5141 6.92173 11.0346 6.92173H12.9221V8.80923ZM12.9221 5.97798H11.0346C9.99361 5.97798 9.14707 6.82452 9.14707 7.86548C9.14707 8.90644 9.99361 9.75298 11.0346 9.75298H12.9221V11.6405H2.30488C1.91464 11.6405 1.59707 11.3229 1.59707 10.9327V3.93098C1.81177 4.03338 2.05149 4.09048 2.30488 4.09048H12.9221V5.97798Z" fill="#87888D"/>
</svg>
