<svg width="24" height="24" viewBox="0 0 24 24" fill="none" xmlns="http://www.w3.org/2000/svg">
<path d="M16.0399 7.5C15.2487 3.825 13.5612 1.5 12.0004 1.5C10.4397 1.5 8.75219 3.825 7.96094 7.5H16.0399Z" fill="#1B344F"/>
<path d="M7.5 12C7.49982 13.0033 7.56671 14.0056 7.70025 15H16.2998C16.4333 14.0056 16.5002 13.0033 16.5 12C16.5002 10.9967 16.4333 9.99442 16.2998 9H7.70025C7.56671 9.99442 7.49982 10.9967 7.5 12Z" fill="#1B344F"/>
<path d="M7.96094 16.5C8.75219 20.175 10.4397 22.5 12.0004 22.5C13.5612 22.5 15.2487 20.175 16.0399 16.5H7.96094Z" fill="#1B344F"/>
<path d="M17.5756 7.50075H22.3006C21.5907 5.88507 20.512 4.45826 19.151 3.33475C17.7901 2.21125 16.1848 1.42232 14.4639 1.03125C15.8866 2.283 17.0026 4.5975 17.5756 7.50075Z" fill="#1B344F"/>
<path d="M22.8402 9H17.8152C17.9389 9.99521 18.0008 10.9971 18.0005 12C18.0005 13.0029 17.9384 14.0048 17.8145 15H22.8395C23.3864 13.0374 23.3864 10.9626 22.8395 9H22.8402Z" fill="#1B344F"/>
<path d="M14.4639 22.9695C16.185 22.5786 17.7906 21.7898 19.1519 20.6663C20.5131 19.5428 21.592 18.1159 22.3021 16.5H17.5771C17.0026 19.4032 15.8866 21.7177 14.4639 22.9695Z" fill="#1B344F"/>
<path d="M6.42422 16.5H1.69922C2.40931 18.1159 3.48825 19.5428 4.84947 20.6663C6.21069 21.7898 7.81629 22.5786 9.53747 22.9695C8.11322 21.7177 6.99722 19.4032 6.42422 16.5Z" fill="#1B344F"/>
<path d="M9.53649 1.03125C7.81532 1.42211 6.20971 2.21094 4.84849 3.33446C3.48727 4.45797 2.40834 5.8849 1.69824 7.50075H6.42324C6.99774 4.5975 8.11374 2.283 9.53649 1.03125Z" fill="#1B344F"/>
<path d="M6.00019 12C6.00009 10.9971 6.06221 9.99519 6.18619 9H1.16119C0.614239 10.9626 0.614239 13.0374 1.16119 15H6.18619C6.06221 14.0048 6.00009 13.0029 6.00019 12Z" fill="#1B344F"/>
</svg>
