<svg width="11" height="9" viewBox="0 0 11 9" fill="none" xmlns="http://www.w3.org/2000/svg">
<path fill-rule="evenodd" clip-rule="evenodd" d="M4.36554 1.99103C5.61216 1.99109 6.8111 2.46968 7.71458 3.3279C7.78261 3.39416 7.89136 3.39333 7.95836 3.32603L8.60871 2.67024C8.64263 2.63611 8.66155 2.58988 8.66127 2.54177C8.66099 2.49367 8.64153 2.44766 8.60721 2.41392C6.23587 0.143276 2.49483 0.143276 0.123497 2.41392C0.0891466 2.44763 0.0696566 2.49363 0.0693399 2.54173C0.0690231 2.58984 0.0879057 2.63608 0.121809 2.67024L0.772339 3.32603C0.839302 3.39343 0.948131 3.39426 1.01612 3.3279C1.91971 2.46963 3.1188 1.99103 4.36554 1.99103ZM4.3655 4.12498C5.05043 4.12494 5.71092 4.37931 6.21863 4.83866C6.2873 4.90386 6.39548 4.90244 6.46242 4.83548L7.11201 4.17969C7.14622 4.14529 7.1652 4.09863 7.16471 4.05014C7.16422 4.00165 7.14429 3.95538 7.10939 3.92168C5.5633 2.48473 3.169 2.48473 1.62292 3.92168C1.58799 3.95538 1.56807 4.00167 1.56761 4.05018C1.56715 4.09868 1.5862 4.14534 1.62048 4.17969L2.26988 4.83548C2.33683 4.90244 2.445 4.90386 2.51367 4.83866C3.02104 4.37961 3.68101 4.12526 4.3655 4.12498ZM5.66685 5.56024C5.66784 5.60886 5.64871 5.65574 5.61397 5.68981L4.49031 6.82282C4.45737 6.85612 4.41246 6.87486 4.3656 6.87486C4.31875 6.87486 4.27384 6.85612 4.2409 6.82282L3.11705 5.68981C3.08233 5.65572 3.06324 5.60882 3.06427 5.5602C3.06529 5.51157 3.08636 5.46552 3.12249 5.43293C3.8401 4.82648 4.89111 4.82648 5.60872 5.43293C5.64482 5.46555 5.66586 5.51161 5.66685 5.56024Z" fill="#1A1D25"/>
</svg>
