<svg width="206" height="141" viewBox="0 0 206 141" fill="none" xmlns="http://www.w3.org/2000/svg">
<g filter="url(#filter0_d_1683_225412)">
<rect x="8" y="5" width="190" height="125" rx="6" fill="#FBFBFF"/>
<rect x="103" y="25" width="85" height="85" rx="6" fill="white" stroke="#EEEEF1"/>
<path fill-rule="evenodd" clip-rule="evenodd" d="M119 61C119 59.8954 119.895 59 121 59H170C171.105 59 172 59.8954 172 61V73C172 74.1046 171.105 75 170 75H121C119.895 75 119 74.1046 119 73V61Z" fill="#8C9CBB"/>
<path fill-rule="evenodd" clip-rule="evenodd" d="M119 84C119 82.8954 119.895 82 121 82H158C159.105 82 160 82.8954 160 84V95C160 96.1046 159.105 97 158 97H121C119.895 97 119 96.1046 119 95V84Z" fill="#1642C5"/>
<path fill-rule="evenodd" clip-rule="evenodd" d="M119 39C119 37.8954 119.895 37 121 37H146C147.105 37 148 37.8954 148 39V50C148 51.1046 147.105 52 146 52H121C119.895 52 119 51.1046 119 50V39Z" fill="#1F293C"/>
<path fill-rule="evenodd" clip-rule="evenodd" d="M18 34C18 32.8954 18.8954 32 20 32H59.9398C61.0444 32 61.9398 32.8954 61.9398 34V40C61.9398 41.1046 61.0444 42 59.9398 42H20C18.8954 42 18 41.1046 18 40V34Z" fill="#1F293C"/>
<path fill-rule="evenodd" clip-rule="evenodd" d="M18 84C18 82.8954 18.8954 82 20 82H59.9398C61.0444 82 61.9398 82.8954 61.9398 84V90C61.9398 91.1046 61.0444 92 59.9398 92H20C18.8954 92 18 91.1046 18 90V84Z" fill="#1642C5"/>
<path fill-rule="evenodd" clip-rule="evenodd" d="M18 64C18 62.8954 18.8954 62 20 62H80C81.1046 62 82 62.8954 82 64V70C82 71.1046 81.1046 72 80 72H20C18.8954 72 18 71.1046 18 70V64Z" fill="#8C9CBB"/>
<path fill-rule="evenodd" clip-rule="evenodd" d="M18 49C18 47.8954 18.8954 47 20 47H91C92.1046 47 93 47.8954 93 49V55C93 56.1046 92.1046 57 91 57H20C18.8954 57 18 56.1046 18 55V49Z" fill="#8C9CBB"/>
<path fill-rule="evenodd" clip-rule="evenodd" d="M23 107C25.7614 107 28 104.761 28 102C28 99.2386 25.7614 97 23 97C20.2386 97 18 99.2386 18 102C18 104.761 20.2386 107 23 107Z" fill="#F0F0F0"/>
<path fill-rule="evenodd" clip-rule="evenodd" d="M38 107C40.7614 107 43 104.761 43 102C43 99.2386 40.7614 97 38 97C35.2386 97 33 99.2386 33 102C33 104.761 35.2386 107 38 107Z" fill="#F0F0F0"/>
<path fill-rule="evenodd" clip-rule="evenodd" d="M53 107C55.7614 107 58 104.761 58 102C58 99.2386 55.7614 97 53 97C50.2386 97 48 99.2386 48 102C48 104.761 50.2386 107 53 107Z" fill="#F0F0F0"/>
</g>
<defs>
<filter id="filter0_d_1683_225412" x="0" y="0" width="206" height="141" filterUnits="userSpaceOnUse" color-interpolation-filters="sRGB">
<feFlood flood-opacity="0" result="BackgroundImageFix"/>
<feColorMatrix in="SourceAlpha" type="matrix" values="0 0 0 0 0 0 0 0 0 0 0 0 0 0 0 0 0 0 127 0" result="hardAlpha"/>
<feOffset dy="3"/>
<feGaussianBlur stdDeviation="4"/>
<feComposite in2="hardAlpha" operator="out"/>
<feColorMatrix type="matrix" values="0 0 0 0 0.274049 0 0 0 0 0.267535 0 0 0 0 0.279167 0 0 0 0.12 0"/>
<feBlend mode="normal" in2="BackgroundImageFix" result="effect1_dropShadow_1683_225412"/>
<feBlend mode="normal" in="SourceGraphic" in2="effect1_dropShadow_1683_225412" result="shape"/>
</filter>
</defs>
</svg>
